<svg width="77" height="76" viewBox="0 0 77 76" fill="none" xmlns="http://www.w3.org/2000/svg">
<path d="M10.2083 73.25H66.7917C71.256 73.25 74.875 69.7429 74.875 65.4167V10.5833C74.875 6.2571 71.256 2.75 66.7917 2.75H10.2083C5.74403 2.75 2.125 6.2571 2.125 10.5833V65.4167C2.125 69.7429 5.74403 73.25 10.2083 73.25ZM10.2083 73.25L54.6667 30.1667L74.875 49.75M30.4167 24.2917C30.4167 27.5363 27.7024 30.1667 24.3542 30.1667C21.0059 30.1667 18.2917 27.5363 18.2917 24.2917C18.2917 21.047 21.0059 18.4167 24.3542 18.4167C27.7024 18.4167 30.4167 21.047 30.4167 24.2917Z" stroke="#1E1E1E" stroke-width="4" stroke-linecap="round" stroke-linejoin="round"/>
</svg>
