<?xml version="1.0" encoding="UTF-8" standalone="no"?>
<!-- Created with Inkscape (http://www.inkscape.org/) -->

<svg
   width="36.489933mm"
   height="25.042336mm"
   viewBox="0 0 36.489933 25.042336"
   version="1.1"
   id="svg1"
   inkscape:version="1.4 (86a8ad7, 2024-10-11)"
   sodipodi:docname="anadirpublicacion.svg"
   xmlns:inkscape="http://www.inkscape.org/namespaces/inkscape"
   xmlns:sodipodi="http://sodipodi.sourceforge.net/DTD/sodipodi-0.dtd"
   xmlns="http://www.w3.org/2000/svg"
   xmlns:svg="http://www.w3.org/2000/svg">
  <sodipodi:namedview
     id="namedview1"
     pagecolor="#ffffff"
     bordercolor="#666666"
     borderopacity="1.0"
     inkscape:showpageshadow="2"
     inkscape:pageopacity="0.0"
     inkscape:pagecheckerboard="0"
     inkscape:deskcolor="#d1d1d1"
     inkscape:document-units="mm"
     inkscape:zoom="0.71891835"
     inkscape:cx="79.981266"
     inkscape:cy="171.78585"
     inkscape:window-width="1920"
     inkscape:window-height="1009"
     inkscape:window-x="-8"
     inkscape:window-y="-8"
     inkscape:window-maximized="1"
     inkscape:current-layer="layer1" />
  <defs
     id="defs1" />
  <g
     inkscape:label="Capa 1"
     inkscape:groupmode="layer"
     id="layer1"
     transform="translate(-84.065776,-103.02635)">
    <g
       id="g1">
      <path
         d="m 84.456566,127.20265 h -0.39079 l 1.13057,-3.07869 h 0.3847 l 1.13057,3.07869 h -0.39079 l -0.91996,-2.59159 h -0.0241 z m 0.14447,-1.20253 h 1.57533 v 0.33073 h -1.57533 z m 2.89692,-0.18653 v 1.38906 h -0.35481 v -2.30902 h 0.34264 v 0.36063 h 0.0302 c 0.054,-0.11721 0.13626,-0.2114 0.24659,-0.28257 0.11007,-0.0722 0.25242,-0.10822 0.42678,-0.10822 0.15636,0 0.29315,0.032 0.41036,0.0963 0.11748,0.063 0.2085,0.15928 0.27385,0.28866 0.0651,0.12806 0.0976,0.29051 0.0976,0.4871 v 1.46711 h -0.35481 v -1.4433 c 0,-0.18124 -0.0471,-0.32253 -0.14128,-0.42386 -0.0942,-0.10213 -0.22358,-0.1532 -0.38788,-0.1532 -0.11324,0 -0.21458,0.0243 -0.30374,0.0736 -0.0881,0.0492 -0.1577,0.12065 -0.20903,0.2151 -0.0511,0.0942 -0.0765,0.20823 -0.0765,0.34264 z m 0.096,-1.19671 -0.27649,-0.0119 c 0,-0.15345 0.0437,-0.2786 0.13071,-0.37597 0.0884,-0.0982 0.19711,-0.14711 0.32623,-0.14711 0.0571,0 0.10768,0.01 0.15187,0.0299 0.0442,0.0191 0.0862,0.041 0.12621,0.0662 0.0402,0.0251 0.0812,0.0476 0.12329,0.0677 0.0431,0.019 0.0918,0.0286 0.14579,0.0286 0.0572,0 0.1053,-0.0222 0.14446,-0.0661 0.04,-0.0453 0.0601,-0.0992 0.0601,-0.16246 l 0.27067,0.0241 c 0,0.15637 -0.0442,0.28072 -0.13229,0.3728 -0.0873,0.0923 -0.19553,0.13838 -0.32491,0.13838 -0.0691,0 -0.12621,-0.01 -0.17119,-0.0286 -0.0452,-0.0201 -0.0852,-0.0426 -0.12038,-0.0677 -0.0349,-0.0249 -0.072,-0.0471 -0.11113,-0.0661 -0.0391,-0.0198 -0.0873,-0.0299 -0.14446,-0.0299 -0.0572,0 -0.10477,0.0225 -0.14261,0.0675 -0.0373,0.0442 -0.0558,0.0979 -0.0558,0.16087 z m 2.70484,2.64001 c -0.14632,0 -0.27914,-0.0278 -0.3982,-0.0828 -0.11933,-0.0561 -0.21405,-0.13679 -0.28416,-0.2421 -0.0701,-0.10609 -0.10531,-0.23442 -0.10531,-0.3847 0,-0.13229 0.0262,-0.23971 0.0783,-0.32173 0.0519,-0.0833 0.12171,-0.14843 0.20876,-0.19553 0.0873,-0.0471 0.18335,-0.082 0.28866,-0.1053 0.10636,-0.0238 0.21299,-0.0429 0.32014,-0.0569 0.1405,-0.0183 0.25427,-0.0318 0.34132,-0.0408 0.0884,-0.0101 0.1524,-0.0265 0.19235,-0.0495 0.0413,-0.023 0.0616,-0.0632 0.0616,-0.12039 v -0.0119 c 0,-0.14844 -0.0405,-0.26379 -0.12171,-0.34582 -0.0802,-0.0823 -0.20188,-0.12329 -0.36513,-0.12329 -0.1696,0 -0.30242,0.037 -0.39846,0.11112 -0.0963,0.0744 -0.16378,0.15346 -0.20294,0.2376 l -0.33681,-0.12012 c 0.0601,-0.14049 0.14023,-0.24977 0.24051,-0.32782 0.10133,-0.0791 0.2114,-0.13441 0.33073,-0.16536 0.12038,-0.032 0.23865,-0.0482 0.3548,-0.0482 0.0741,0 0.15928,0.009 0.25559,0.027 0.0971,0.0172 0.19103,0.0526 0.28099,0.10689 0.0913,0.054 0.16695,0.13573 0.22701,0.245 0.0603,0.10928 0.0902,0.25559 0.0902,0.43895 v 1.52135 h -0.3548 v -0.31273 h -0.018 c -0.0241,0.0503 -0.064,0.10371 -0.12012,0.16086 -0.0561,0.0571 -0.13097,0.10584 -0.2241,0.14579 -0.0931,0.0402 -0.2069,0.0603 -0.34131,0.0603 z m 0.0542,-0.31882 c 0.14023,0 0.2585,-0.0275 0.3548,-0.0825 0.0971,-0.0553 0.1704,-0.12647 0.21934,-0.21352 0.0503,-0.0873 0.0751,-0.17886 0.0751,-0.27517 v -0.32464 c -0.0148,0.018 -0.0479,0.0344 -0.0992,0.0495 -0.05,0.014 -0.10822,0.0267 -0.17436,0.0376 -0.0651,0.0101 -0.12859,0.0191 -0.19077,0.027 -0.0611,0.007 -0.11086,0.0132 -0.14896,0.0182 -0.0921,0.0119 -0.17833,0.0315 -0.2585,0.0585 -0.0791,0.0262 -0.1434,0.0656 -0.19235,0.1188 -0.0481,0.0521 -0.0722,0.1233 -0.0722,0.21352 0,0.1233 0.0455,0.21643 0.13679,0.27967 0.0921,0.0622 0.20902,0.0931 0.35031,0.0931 z m 2.52359,0.31274 c -0.19235,0 -0.36221,-0.0487 -0.50958,-0.14579 -0.14738,-0.0984 -0.26247,-0.23654 -0.34581,-0.41513 -0.0831,-0.17939 -0.12462,-0.39132 -0.12462,-0.63579 0,-0.24263 0.0415,-0.45297 0.12462,-0.6313 0.0833,-0.17859 0.19896,-0.31618 0.34739,-0.41354 0.14817,-0.0971 0.31962,-0.14579 0.51409,-0.14579 0.15028,0 0.26908,0.0251 0.35639,0.0751 0.0881,0.0492 0.15531,0.10531 0.20135,0.16854 0.0471,0.0619 0.0836,0.11324 0.1098,0.1532 h 0.0299 v -1.13639 h 0.35481 v 3.07869 h -0.34264 v -0.3548 h -0.0421 c -0.0262,0.0421 -0.0632,0.0952 -0.11139,0.15928 -0.0481,0.0632 -0.11668,0.11985 -0.20584,0.16986 -0.0892,0.0492 -0.20796,0.0738 -0.3564,0.0738 z m 0.0482,-0.31883 c 0.14234,0 0.26247,-0.037 0.36089,-0.11112 0.0982,-0.0751 0.17277,-0.17886 0.22384,-0.31115 0.0511,-0.13335 0.0767,-0.28734 0.0767,-0.4617 0,-0.17224 -0.0251,-0.32306 -0.0751,-0.45244 -0.05,-0.13017 -0.12436,-0.23151 -0.22252,-0.30374 -0.0982,-0.073 -0.21934,-0.10954 -0.3638,-0.10954 -0.15028,0 -0.2757,0.0384 -0.37571,0.11563 -0.0992,0.0762 -0.1741,0.17991 -0.2241,0.31115 -0.0492,0.13044 -0.0736,0.27675 -0.0736,0.43894 0,0.16457 0.0249,0.3138 0.0752,0.44821 0.0511,0.13308 0.1262,0.23944 0.22542,0.31855 0.10028,0.0783 0.22437,0.11721 0.3728,0.11721 z m 1.70921,0.27067 v -2.30902 h 0.3548 v 2.30902 z m 0.18044,-2.69398 c -0.0691,0 -0.12885,-0.0236 -0.17886,-0.0707 -0.0492,-0.0471 -0.0735,-0.10372 -0.0735,-0.16986 0,-0.0661 0.0243,-0.12277 0.0735,-0.16986 0.05,-0.0471 0.10981,-0.0707 0.17886,-0.0707 0.0691,0 0.12833,0.0236 0.17754,0.0707 0.05,0.0471 0.0751,0.10371 0.0751,0.16986 0,0.0661 -0.0251,0.12277 -0.0751,0.16986 -0.0492,0.0471 -0.10848,0.0707 -0.17754,0.0707 z m 0.82418,2.69398 v -2.30902 h 0.3429 v 0.34872 h 0.0241 c 0.0421,-0.1143 0.118,-0.2069 0.22833,-0.27807 0.11033,-0.0712 0.23469,-0.10689 0.3728,-0.10689 0.0262,0 0.0587,5.3e-4 0.0979,0.002 0.0389,10e-4 0.0685,0.003 0.0886,0.005 v 0.36089 c -0.0122,-0.003 -0.0397,-0.008 -0.0828,-0.0135 -0.0421,-0.007 -0.0865,-0.0106 -0.13362,-0.0106 -0.11245,0 -0.21246,0.0235 -0.30083,0.0706 -0.0871,0.046 -0.15637,0.11033 -0.20743,0.19235 -0.05,0.0812 -0.0751,0.17383 -0.0751,0.27808 v 1.46129 z m 2.76569,0.86598 v -3.175 h 0.3429 v 0.36672 h 0.0421 c 0.0259,-0.04 0.0622,-0.0913 0.10821,-0.1532 0.0471,-0.0632 0.1143,-0.11932 0.20135,-0.16854 0.0884,-0.05 0.20743,-0.0751 0.35798,-0.0751 0.19421,0 0.36566,0.0487 0.51409,0.14579 0.148164,0.0974 0.264054,0.23495 0.347134,0.41354 0.0833,0.17833 0.12488,0.38867 0.12488,0.6313 0,0.24447 -0.0415,0.4564 -0.12488,0.63579 -0.0831,0.17859 -0.19844,0.31671 -0.345814,0.41513 -0.14711,0.0971 -0.31697,0.14579 -0.50959,0.14579 -0.14816,0 -0.26696,-0.0246 -0.35613,-0.0738 -0.0892,-0.05 -0.15795,-0.10663 -0.20611,-0.16986 -0.0482,-0.064 -0.0852,-0.11721 -0.11112,-0.15928 h -0.0302 v 1.22078 z m 0.34872,-2.02062 c 0,0.17436 0.0257,0.32835 0.0767,0.4617 0.0511,0.13229 0.12594,0.23601 0.2241,0.31115 0.0982,0.0741 0.21855,0.11112 0.36063,0.11112 0.14843,0 0.27225,-0.0389 0.37147,-0.11721 0.10028,-0.0791 0.17542,-0.18547 0.225434,-0.31855 0.0511,-0.13441 0.0767,-0.28364 0.0767,-0.44821 0,-0.16219 -0.0251,-0.3085 -0.0751,-0.43894 -0.0492,-0.13124 -0.123834,-0.23495 -0.224114,-0.31115 -0.0992,-0.0773 -0.22383,-0.11563 -0.37438,-0.11563 -0.1442,0 -0.26538,0.0365 -0.3638,0.10954 -0.0982,0.0722 -0.17225,0.17357 -0.22225,0.30374 -0.0503,0.12938 -0.0754,0.2802 -0.0754,0.45244 z m 3.686184,0.21061 v -1.36499 h 0.3548 v 2.30902 h -0.3548 v -0.39079 h -0.0241 c -0.054,0.11721 -0.13811,0.21696 -0.25241,0.29898 -0.1143,0.0812 -0.2585,0.12198 -0.43313,0.12198 -0.1442,0 -0.27252,-0.0318 -0.3847,-0.0947 -0.11218,-0.0643 -0.20056,-0.16033 -0.26458,-0.28866 -0.0643,-0.12938 -0.0963,-0.2921 -0.0963,-0.48868 v -1.46712 h 0.3548 v 1.44304 c 0,0.16854 0.0471,0.30268 0.14129,0.40296 0.0952,0.10028 0.21643,0.15029 0.3638,0.15029 0.0884,0 0.17807,-0.0225 0.26908,-0.0677 0.0923,-0.045 0.16934,-0.11403 0.23151,-0.20743 0.0632,-0.0931 0.0947,-0.21193 0.0947,-0.35613 z m 1.05277,0.94403 v -3.07869 h 0.35481 v 1.13639 h 0.0302 c 0.0259,-0.04 0.0619,-0.0913 0.10822,-0.1532 0.0471,-0.0632 0.11403,-0.11932 0.20134,-0.16854 0.0881,-0.05 0.20744,-0.0751 0.35772,-0.0751 0.19447,0 0.36592,0.0487 0.51409,0.14579 0.14843,0.0974 0.26431,0.23495 0.34739,0.41354 0.0831,0.17833 0.12489,0.38867 0.12489,0.6313 0,0.24447 -0.0418,0.4564 -0.12489,0.63579 -0.0831,0.17859 -0.19843,0.31671 -0.34581,0.41513 -0.14737,0.0971 -0.31723,0.14579 -0.50958,0.14579 -0.14844,0 -0.26723,-0.0246 -0.3564,-0.0738 -0.0892,-0.05 -0.15769,-0.10663 -0.20584,-0.16986 -0.0482,-0.064 -0.0852,-0.11721 -0.11113,-0.15928 h -0.0423 v 0.3548 z m 0.34872,-1.15464 c 0,0.17436 0.0257,0.32835 0.0767,0.4617 0.0511,0.13229 0.12568,0.23601 0.2241,0.31115 0.0982,0.0741 0.21829,0.11112 0.36063,0.11112 0.14843,0 0.27226,-0.0389 0.37148,-0.11721 0.10001,-0.0791 0.17515,-0.18547 0.22542,-0.31855 0.0511,-0.13441 0.0767,-0.28364 0.0767,-0.44821 0,-0.16219 -0.0251,-0.3085 -0.0751,-0.43894 -0.0492,-0.13124 -0.12383,-0.23495 -0.2241,-0.31115 -0.0992,-0.0773 -0.22411,-0.11563 -0.37439,-0.11563 -0.1442,0 -0.26564,0.0365 -0.3638,0.10954 -0.0982,0.0722 -0.17224,0.17357 -0.22252,0.30374 -0.05,0.12938 -0.0751,0.2802 -0.0751,0.45244 z m 2.58736,-1.92405 v 3.07869 h -0.3548 v -3.07869 z m 0.64982,3.07869 v -2.30902 h 0.35454 v 2.30902 z m 0.18018,-2.69398 c -0.0691,0 -0.12859,-0.0236 -0.17886,-0.0707 -0.0489,-0.0471 -0.0736,-0.10372 -0.0736,-0.16986 0,-0.0661 0.0246,-0.12277 0.0736,-0.16986 0.0503,-0.0471 0.10981,-0.0707 0.17886,-0.0707 0.0693,0 0.12832,0.0236 0.17754,0.0707 0.05,0.0471 0.0751,0.10371 0.0751,0.16986 0,0.0661 -0.0251,0.12277 -0.0751,0.16986 -0.0492,0.0471 -0.10822,0.0707 -0.17754,0.0707 z m 1.76239,2.74214 c -0.21643,0 -0.40296,-0.0511 -0.55933,-0.15346 -0.15637,-0.10213 -0.27649,-0.24289 -0.36063,-0.42228 -0.0844,-0.17938 -0.12647,-0.38444 -0.12647,-0.61489 0,-0.23468 0.0431,-0.44159 0.12939,-0.62098 0.087,-0.18044 0.20849,-0.3212 0.3638,-0.42227 0.15637,-0.10239 0.33866,-0.15346 0.54716,-0.15346 0.16245,0 0.30876,0.0302 0.43894,0.0902 0.13044,0.0601 0.23707,0.1442 0.32015,0.25268 0.0833,0.10822 0.13493,0.23442 0.15504,0.37862 h -0.35481 c -0.0272,-0.10504 -0.0873,-0.19844 -0.18044,-0.2794 -0.0923,-0.0823 -0.21643,-0.1233 -0.3728,-0.1233 -0.13838,0 -0.25956,0.036 -0.3638,0.10822 -0.10319,0.0712 -0.18389,0.17171 -0.24209,0.30215 -0.0571,0.12912 -0.0857,0.28099 -0.0857,0.45535 0,0.17859 0.0281,0.33391 0.0841,0.4662 0.0572,0.13229 0.13732,0.23495 0.2405,0.30797 0.10425,0.0733 0.22675,0.1098 0.36698,0.1098 0.0921,0 0.17595,-0.0159 0.25109,-0.0481 0.0751,-0.032 0.13864,-0.078 0.19077,-0.13811 0.0521,-0.0603 0.0892,-0.13229 0.11138,-0.21643 h 0.35481 c -0.0201,0.13626 -0.0699,0.25903 -0.14896,0.3683 -0.078,0.10821 -0.18177,0.1942 -0.31115,0.2585 -0.12832,0.063 -0.27755,0.0947 -0.44794,0.0947 z m 2.10608,0.006 c -0.14631,0 -0.27913,-0.0278 -0.39846,-0.0828 -0.11906,-0.0561 -0.21378,-0.13679 -0.2839,-0.2421 -0.0704,-0.10609 -0.1053,-0.23442 -0.1053,-0.3847 0,-0.13229 0.0259,-0.23971 0.078,-0.32173 0.0521,-0.0833 0.12171,-0.14843 0.20902,-0.19553 0.0873,-0.0471 0.18336,-0.082 0.28866,-0.1053 0.1061,-0.0238 0.21299,-0.0429 0.32015,-0.0569 0.14023,-0.0183 0.254,-0.0318 0.34131,-0.0408 0.0881,-0.0101 0.1524,-0.0265 0.19235,-0.0495 0.0413,-0.023 0.0616,-0.0632 0.0616,-0.12039 v -0.0119 c 0,-0.14844 -0.0405,-0.26379 -0.12171,-0.34582 -0.0802,-0.0823 -0.20187,-0.12329 -0.36539,-0.12329 -0.16933,0 -0.30215,0.037 -0.39819,0.11112 -0.0963,0.0744 -0.16405,0.15346 -0.20294,0.2376 l -0.33681,-0.12012 c 0.0601,-0.14049 0.14022,-0.24977 0.2405,-0.32782 0.10107,-0.0791 0.2114,-0.13441 0.33073,-0.16536 0.12012,-0.032 0.23839,-0.0482 0.35481,-0.0482 0.0741,0 0.15928,0.009 0.25558,0.027 0.0971,0.0172 0.19077,0.0526 0.28099,0.10689 0.0913,0.054 0.16695,0.13573 0.22701,0.245 0.0601,0.10928 0.0902,0.25559 0.0902,0.43895 v 1.52135 h -0.35481 v -0.31273 h -0.018 c -0.0241,0.0503 -0.064,0.10371 -0.12039,0.16086 -0.0561,0.0571 -0.1307,0.10584 -0.22383,0.14579 -0.0931,0.0402 -0.20691,0.0603 -0.34132,0.0603 z m 0.0542,-0.31882 c 0.14023,0 0.2585,-0.0275 0.35481,-0.0825 0.0971,-0.0553 0.17013,-0.12647 0.21934,-0.21352 0.05,-0.0873 0.0751,-0.17886 0.0751,-0.27517 v -0.32464 c -0.0151,0.018 -0.0481,0.0344 -0.0992,0.0495 -0.05,0.014 -0.10821,0.0267 -0.17436,0.0376 -0.0651,0.0101 -0.12885,0.0191 -0.19103,0.027 -0.0611,0.007 -0.11059,0.0132 -0.14869,0.0182 -0.0921,0.0119 -0.17833,0.0315 -0.2585,0.0585 -0.0794,0.0262 -0.1434,0.0656 -0.19262,0.1188 -0.0479,0.0521 -0.072,0.1233 -0.072,0.21352 0,0.1233 0.0455,0.21643 0.13679,0.27967 0.0921,0.0622 0.20902,0.0931 0.3503,0.0931 z m 2.58975,0.31274 c -0.21643,0 -0.40296,-0.0511 -0.55933,-0.15346 -0.15637,-0.10213 -0.27649,-0.24289 -0.36063,-0.42228 -0.0841,-0.17938 -0.12647,-0.38444 -0.12647,-0.61489 0,-0.23468 0.0431,-0.44159 0.12938,-0.62098 0.0873,-0.18044 0.20849,-0.3212 0.3638,-0.42227 0.15637,-0.10239 0.33867,-0.15346 0.54716,-0.15346 0.16245,0 0.30877,0.0302 0.43894,0.0902 0.13044,0.0601 0.23707,0.1442 0.32041,0.25268 0.0831,0.10822 0.13468,0.23442 0.15479,0.37862 h -0.35481 c -0.027,-0.10504 -0.0873,-0.19844 -0.18045,-0.2794 -0.0921,-0.0823 -0.21643,-0.1233 -0.37279,-0.1233 -0.13838,0 -0.25956,0.036 -0.36381,0.10822 -0.10318,0.0712 -0.18388,0.17171 -0.24209,0.30215 -0.0572,0.12912 -0.0857,0.28099 -0.0857,0.45535 0,0.17859 0.0281,0.33391 0.0844,0.4662 0.0569,0.13229 0.13705,0.23495 0.2405,0.30797 0.10425,0.0733 0.22649,0.1098 0.36672,0.1098 0.0921,0 0.17594,-0.0159 0.25109,-0.0481 0.0751,-0.032 0.13864,-0.078 0.19076,-0.13811 0.0521,-0.0603 0.0894,-0.13229 0.11139,-0.21643 h 0.35481 c -0.0201,0.13626 -0.0696,0.25903 -0.14896,0.3683 -0.0781,0.10821 -0.18177,0.1942 -0.31115,0.2585 -0.12833,0.063 -0.27755,0.0947 -0.44794,0.0947 z m 1.42663,-0.0482 v -2.30902 h 0.35481 v 2.30902 z m 0.18044,-2.69398 c -0.0693,0 -0.12885,-0.0236 -0.17885,-0.0707 -0.0492,-0.0471 -0.0738,-0.10372 -0.0738,-0.16986 0,-0.0661 0.0246,-0.12277 0.0738,-0.16986 0.05,-0.0471 0.10953,-0.0707 0.17885,-0.0707 0.0691,0 0.12833,0.0236 0.17728,0.0707 0.0503,0.0471 0.0751,0.10371 0.0751,0.16986 0,0.0661 -0.0249,0.12277 -0.0751,0.16986 -0.049,0.0471 -0.10822,0.0707 -0.17728,0.0707 z m 1.76213,2.74214 c -0.20849,0 -0.39132,-0.0497 -0.54875,-0.14896 -0.1561,-0.0992 -0.2786,-0.23786 -0.36671,-0.41646 -0.0871,-0.17833 -0.1307,-0.38682 -0.1307,-0.62521 0,-0.2405 0.0437,-0.45058 0.1307,-0.62997 0.0881,-0.17939 0.21061,-0.31856 0.36671,-0.41778 0.15743,-0.0992 0.34026,-0.14896 0.54875,-0.14896 0.20849,0 0.39105,0.0497 0.54742,0.14896 0.15716,0.0992 0.2794,0.23839 0.36671,0.41778 0.0881,0.17939 0.1323,0.38947 0.1323,0.62997 0,0.23839 -0.0442,0.44688 -0.1323,0.62521 -0.0873,0.1786 -0.20955,0.31724 -0.36671,0.41646 -0.15637,0.0992 -0.33893,0.14896 -0.54742,0.14896 z m 0,-0.31883 c 0.15848,0 0.28866,-0.0405 0.39105,-0.1217 0.10213,-0.0812 0.1778,-0.18786 0.22702,-0.32015 0.0489,-0.13229 0.0736,-0.2757 0.0736,-0.42995 0,-0.15451 -0.0246,-0.29818 -0.0736,-0.43153 -0.0492,-0.13335 -0.12489,-0.24104 -0.22702,-0.32306 -0.10239,-0.0823 -0.23257,-0.1233 -0.39105,-0.1233 -0.15822,0 -0.28866,0.041 -0.39079,0.1233 -0.10213,0.082 -0.1778,0.18971 -0.22701,0.32306 -0.0489,0.13335 -0.0736,0.27702 -0.0736,0.43153 0,0.15425 0.0246,0.29766 0.0736,0.42995 0.0492,0.13229 0.12488,0.23892 0.22701,0.32015 0.10213,0.0812 0.23257,0.1217 0.39079,0.1217 z m -0.16219,-2.35108 0.36671,-0.69745 h 0.41487 l -0.46884,0.69745 z m 2.10502,1.23269 v 1.38906 h -0.3548 v -2.30902 h 0.34263 v 0.36063 h 0.0302 c 0.054,-0.11721 0.13626,-0.2114 0.24659,-0.28257 0.11006,-0.0722 0.25241,-0.10822 0.42677,-0.10822 0.15637,0 0.29316,0.032 0.41037,0.0963 0.11747,0.063 0.20849,0.15928 0.27384,0.28866 0.0651,0.12806 0.0976,0.29051 0.0976,0.4871 v 1.46711 h -0.3548 v -1.4433 c 0,-0.18124 -0.0471,-0.32253 -0.14129,-0.42386 -0.0942,-0.10213 -0.22357,-0.1532 -0.38788,-0.1532 -0.11324,0 -0.21458,0.0243 -0.30374,0.0736 -0.0881,0.0492 -0.15769,0.12065 -0.20902,0.2151 -0.0511,0.0942 -0.0765,0.20823 -0.0765,0.34264 z"
         fill="#000000"
         id="path48"
         style="stroke-width:0.264583" />
      <path
         d="m 103.13986,107.3589 v 6.08542 m -3.13081,-3.04271 h 6.26163 m -8.609814,-6.84609 h 10.957984 c 0.86466,0 1.56554,0.68104 1.56554,1.52135 v 10.64948 c 0,0.84032 -0.70088,1.52135 -1.56554,1.52135 H 97.660866 c -0.86466,0 -1.56554,-0.68103 -1.56554,-1.52135 v -10.64948 c 0,-0.84031 0.70088,-1.52135 1.56554,-1.52135 z"
         stroke="#1e1e1e"
         stroke-width="1.05833"
         stroke-linecap="round"
         stroke-linejoin="round"
         id="path60"
         style="fill:none" />
    </g>
  </g>
</svg>
