<?xml version="1.0" standalone="no"?>
<!DOCTYPE svg PUBLIC "-//W3C//DTD SVG 20010904//EN"
 "http://www.w3.org/TR/2001/REC-SVG-20010904/DTD/svg10.dtd">
<svg version="1.0" xmlns="http://www.w3.org/2000/svg"
 width="322.000000pt" height="229.000000pt" viewBox="0 0 322.000000 229.000000"
 preserveAspectRatio="xMidYMid meet">

<g transform="translate(0.000000,229.000000) scale(0.100000,-0.100000)"
fill="#000000" stroke="none">
<path d="M1234 2066 c-38 -17 -71 -57 -85 -105 -7 -24 -9 -182 -7 -461 3 -471
2 -463 70 -512 l33 -23 475 0 475 0 33 23 c68 49 67 40 70 522 l3 435 -23 44
c-13 25 -36 54 -51 65 -28 20 -42 21 -495 23 -376 2 -473 0 -498 -11z m955
-102 c20 -26 21 -37 21 -444 0 -407 -1 -418 -21 -444 l-20 -26 -449 0 -449 0
-20 26 c-20 26 -21 37 -21 444 0 407 1 418 21 444 l20 26 449 0 449 0 20 -26z"/>
<path d="M1687 1784 c-4 -4 -7 -56 -7 -116 l0 -108 -114 0 c-106 0 -115 -2
-121 -20 -3 -11 -3 -29 0 -40 6 -18 15 -20 120 -20 l114 0 3 -112 3 -113 35 0
35 0 3 113 3 112 114 0 c105 0 114 2 120 20 3 11 3 29 0 40 -6 18 -15 20 -120
20 l-114 0 -3 113 -3 112 -30 3 c-17 2 -34 0 -38 -4z"/>
<path d="M2775 470 c-13 -26 -13 -30 -1 -30 8 0 24 14 36 30 21 30 21 30 1 30
-13 0 -26 -12 -36 -30z"/>
<path d="M321 378 c-23 -62 -41 -116 -41 -120 0 -21 32 -4 41 22 10 27 15 30
56 30 41 0 46 -3 56 -30 7 -18 19 -30 29 -30 23 0 24 -4 -25 125 -27 71 -48
111 -58 113 -13 2 -26 -24 -58 -110z m68 30 c25 -66 24 -68 -8 -68 -35 0 -35
-1 -19 51 13 45 16 47 27 17z"/>
<path d="M530 476 c-15 -15 -12 -36 5 -36 8 0 15 5 15 11 0 10 5 9 46 -8 11
-4 44 22 44 36 0 11 -98 9 -110 -3z"/>
<path d="M997 483 c-4 -3 -7 -19 -7 -34 0 -26 -2 -27 -34 -22 -50 8 -86 -30
-86 -90 0 -59 25 -90 71 -89 19 1 46 1 62 1 l27 1 0 120 c0 93 -3 120 -13 120
-8 0 -17 -3 -20 -7z m-23 -96 c25 -18 18 -85 -11 -104 -19 -13 -24 -12 -42 6
-25 25 -27 58 -5 89 17 25 33 28 58 9z"/>
<path d="M1072 473 c2 -10 10 -18 18 -18 8 0 16 8 18 18 2 12 -3 17 -18 17
-15 0 -20 -5 -18 -17z"/>
<path d="M1740 370 l0 -120 28 -1 c15 0 42 0 61 -1 47 -1 71 30 71 91 0 63
-32 97 -85 88 -34 -6 -35 -5 -35 29 0 27 -4 34 -20 34 -19 0 -20 -7 -20 -120z
m114 14 c22 -22 20 -70 -5 -95 -18 -18 -23 -19 -42 -6 -29 19 -36 86 -11 104
23 17 39 16 58 -3z"/>
<path d="M1940 370 c0 -100 3 -120 15 -120 13 0 15 20 15 120 0 100 -2 120
-15 120 -12 0 -15 -20 -15 -120z"/>
<path d="M2012 473 c5 -26 38 -29 38 -4 0 15 -6 21 -21 21 -14 0 -19 -5 -17
-17z"/>
<path d="M2625 480 c-4 -7 -3 -16 3 -22 14 -14 45 -2 40 15 -6 16 -34 21 -43
7z"/>
<path d="M510 340 c0 -73 3 -90 15 -90 12 0 15 13 15 59 0 41 5 65 16 75 38
38 64 6 64 -78 0 -43 3 -56 15 -56 24 0 21 141 -3 163 -22 20 -63 22 -80 5 -9
-9 -12 -9 -12 0 0 7 -7 12 -15 12 -12 0 -15 -17 -15 -90z"/>
<path d="M709 409 c-28 -28 -7 -44 27 -22 26 16 64 9 64 -12 0 -8 -17 -16 -42
-20 -54 -9 -68 -20 -68 -56 0 -38 39 -64 77 -54 16 5 36 7 46 6 15 -2 17 7 17
73 0 54 -4 79 -16 90 -23 23 -80 20 -105 -5z m91 -93 c0 -14 -26 -46 -36 -46
-13 0 -44 22 -44 31 0 11 36 27 63 28 9 1 17 -5 17 -13z"/>
<path d="M1070 340 c0 -83 1 -90 20 -90 19 0 20 7 20 90 0 83 -1 90 -20 90
-19 0 -20 -7 -20 -90z"/>
<path d="M1150 340 c0 -73 3 -90 15 -90 12 0 15 13 15 58 0 59 18 92 48 92 7
0 12 7 12 15 0 18 -31 20 -48 3 -9 -9 -12 -9 -12 0 0 7 -7 12 -15 12 -12 0
-15 -17 -15 -90z"/>
<path d="M1360 305 c0 -104 2 -125 15 -125 11 0 15 11 15 39 l0 39 30 -11 c25
-10 34 -8 57 9 81 61 34 201 -57 167 -16 -6 -30 -7 -30 -2 0 5 -7 9 -15 9 -13
0 -15 -21 -15 -125z m108 83 c13 -13 16 -76 4 -94 -22 -34 -67 -18 -77 26 -12
55 39 102 73 68z"/>
<path d="M1550 360 c0 -63 3 -74 26 -96 18 -19 31 -24 47 -19 12 4 34 6 50 6
l27 -1 0 90 c0 83 -2 90 -20 90 -17 0 -19 -8 -22 -66 -3 -70 -18 -94 -52 -81
-13 5 -16 21 -16 77 0 63 -2 70 -20 70 -18 0 -20 -7 -20 -70z"/>
<path d="M2010 340 c0 -83 1 -90 20 -90 19 0 20 7 20 90 0 83 -1 90 -20 90
-19 0 -20 -7 -20 -90z"/>
<path d="M2118 416 c-41 -31 -47 -116 -10 -150 10 -8 32 -19 49 -22 26 -5 37
-1 60 22 23 24 25 29 11 32 -9 2 -27 -4 -40 -12 -22 -14 -26 -14 -46 0 -26 18
-30 74 -6 98 20 20 33 20 55 0 10 -9 26 -14 36 -12 16 3 15 7 -9 31 -30 29
-71 35 -100 13z"/>
<path d="M2289 410 c-20 -16 -21 -21 -10 -29 10 -6 19 -4 29 5 19 19 56 14 60
-8 3 -14 -6 -19 -37 -24 -53 -9 -78 -35 -65 -72 11 -30 52 -49 80 -37 11 4 29
7 42 6 21 -2 22 1 22 68 0 58 -4 75 -20 91 -26 26 -71 26 -101 0z m81 -100 c0
-23 -32 -43 -54 -34 -22 8 -20 41 2 47 38 10 52 7 52 -13z"/>
<path d="M2479 417 c-66 -50 -42 -158 38 -173 26 -5 37 -1 60 22 23 24 25 29
11 32 -9 2 -27 -4 -40 -12 -22 -14 -26 -14 -46 0 -33 23 -31 90 3 106 20 9 28
8 43 -5 23 -21 42 -22 42 -3 0 36 -77 59 -111 33z"/>
<path d="M2630 340 c0 -73 3 -90 15 -90 12 0 15 17 15 90 0 73 -3 90 -15 90
-12 0 -15 -17 -15 -90z"/>
<path d="M2726 409 c-22 -17 -26 -28 -26 -69 0 -64 24 -94 75 -94 29 0 43 7
62 29 21 24 24 36 20 74 -8 76 -73 105 -131 60z m74 -19 c39 -21 31 -102 -12
-113 -46 -12 -77 66 -41 105 18 21 27 22 53 8z"/>
<path d="M2890 340 c0 -83 1 -90 20 -90 18 0 20 7 20 63 0 65 11 87 42 87 24
0 38 -38 38 -101 0 -37 4 -49 15 -49 22 0 21 127 -1 158 -17 24 -62 30 -82 10
-9 -9 -12 -9 -12 0 0 7 -9 12 -20 12 -19 0 -20 -7 -20 -90z"/>
</g>
</svg>
