<?xml version="1.0" standalone="no"?>
<!DOCTYPE svg PUBLIC "-//W3C//DTD SVG 20010904//EN"
 "http://www.w3.org/TR/2001/REC-SVG-20010904/DTD/svg10.dtd">
<svg version="1.0" xmlns="http://www.w3.org/2000/svg"
 width="1310.000000pt" height="851.000000pt" viewBox="0 0 1310.000000 851.000000"
 preserveAspectRatio="xMidYMid meet">

<g transform="translate(0.000000,851.000000) scale(0.100000,-0.100000)"
fill="#000000" stroke="none">
<path d="M6280 8331 c-14 -5 -50 -14 -80 -21 -154 -35 -264 -84 -408 -180
-101 -67 -275 -235 -307 -295 l-20 -37 -165 -2 c-136 -2 -179 -7 -245 -25
-197 -55 -409 -203 -518 -360 -59 -86 -124 -271 -149 -426 -13 -84 -1 -283 23
-372 36 -136 98 -235 231 -371 129 -131 267 -218 407 -253 l90 -23 5 -81 c3
-44 7 -285 10 -536 5 -442 6 -458 27 -503 12 -27 38 -59 63 -77 60 -44 212
-117 281 -134 61 -15 88 -19 340 -56 310 -44 991 -33 1215 21 19 5 62 14 95
20 157 31 206 43 280 67 91 29 197 83 237 120 47 45 50 74 54 598 5 510 8 574
27 580 192 57 314 121 421 224 58 57 156 177 156 194 0 3 18 43 40 89 60 127
80 226 80 393 0 167 -28 301 -88 420 -27 55 -139 210 -183 254 -70 70 -198
151 -289 183 -42 15 -69 22 -182 47 -26 6 -106 11 -177 11 -102 0 -131 3 -131
13 0 16 -156 198 -208 242 -39 34 -216 151 -267 177 -70 36 -216 80 -295 90
-118 14 -340 19 -370 9z m265 -235 c82 -13 142 -27 233 -55 19 -5 72 -29 119
-52 72 -35 103 -59 187 -143 156 -155 225 -286 271 -511 18 -89 34 -120 66
-130 31 -10 63 11 89 57 21 37 22 49 18 161 -3 67 -9 131 -13 141 -8 18 -5 19
66 13 159 -14 268 -49 343 -111 151 -124 258 -265 299 -391 93 -289 -33 -636
-292 -804 -62 -40 -91 -50 -91 -33 0 5 12 19 26 33 53 49 183 206 227 275 127
196 131 429 12 633 -60 102 -146 186 -233 227 -75 36 -216 73 -229 61 -16 -16
21 -59 99 -113 152 -106 232 -208 274 -349 26 -87 26 -299 0 -375 -22 -65 -52
-110 -72 -110 -18 0 -18 -2 11 114 30 117 31 195 6 292 -28 107 -64 166 -131
213 -32 23 -61 41 -65 41 -4 0 12 -21 36 -47 58 -67 79 -119 91 -231 15 -147
-7 -288 -55 -357 -21 -30 -38 -50 -187 -224 -44 -52 -83 -106 -87 -120 -9 -39
-44 -104 -62 -118 -21 -15 -33 -6 -26 18 8 24 -3 24 -35 -1 -16 -13 -41 -20
-70 -20 -91 0 -91 27 3 151 123 163 226 324 232 362 4 20 11 40 16 43 5 3 9
21 9 40 0 28 -6 38 -32 54 -50 31 -65 26 -104 -36 -58 -90 -231 -314 -290
-376 -57 -60 -145 -135 -178 -153 -18 -10 -174 -1 -185 11 -3 2 24 35 60 72
76 79 98 111 168 252 41 84 53 119 58 173 7 82 -8 107 -67 107 -36 0 -38 -2
-75 -72 -91 -176 -190 -299 -290 -363 -110 -70 -142 -80 -250 -80 -96 0 -103
1 -180 40 -129 63 -237 189 -356 414 -24 46 -50 85 -57 88 -27 11 -63 -8 -79
-43 -15 -30 -15 -43 -5 -106 24 -141 95 -267 227 -406 55 -58 70 -79 59 -85
-7 -4 -50 -12 -94 -17 -44 -5 -85 -12 -90 -15 -16 -10 -264 245 -326 334 -32
47 -79 125 -104 175 -44 89 -46 91 -79 89 -19 -1 -46 -10 -60 -21 -24 -18 -26
-25 -24 -84 4 -113 55 -220 168 -348 31 -36 79 -94 106 -130 44 -59 47 -66 32
-77 -9 -7 -23 -13 -31 -13 -7 0 -47 -15 -88 -34 -53 -25 -76 -31 -81 -23 -4 7
-20 37 -34 68 -15 31 -54 99 -86 150 -33 52 -62 99 -64 105 -2 5 -24 43 -49
82 -46 74 -83 102 -133 102 -67 0 -74 -82 -18 -200 17 -36 27 -66 22 -68 -16
-5 -183 108 -224 152 -48 51 -120 159 -136 206 -37 103 -55 348 -32 439 5 20
15 61 21 91 18 83 56 144 136 219 129 123 234 184 359 208 75 14 245 18 245 6
0 -14 20 -187 26 -221 8 -48 39 -72 96 -72 56 0 68 15 68 86 0 87 40 268 70
321 10 17 47 66 81 108 126 153 324 261 584 318 42 9 143 6 230 -7z m265
-2133 c58 -12 169 -34 247 -48 78 -15 155 -31 170 -36 15 -5 70 -22 121 -39
109 -35 148 -54 161 -78 9 -17 1 -156 -10 -166 -3 -3 -23 3 -45 13 -64 31
-239 74 -394 96 -232 34 -278 39 -350 40 l-75 0 0 -29 c0 -24 6 -31 30 -38 50
-15 147 -35 205 -43 30 -4 84 -14 120 -21 36 -8 91 -19 122 -24 64 -11 246
-67 336 -102 l57 -23 0 -128 c0 -89 -3 -127 -11 -127 -7 0 -38 13 -70 29 -59
29 -140 55 -224 72 -185 36 -230 41 -463 46 -184 4 -251 2 -261 -7 -31 -25 -5
-37 111 -49 119 -13 310 -45 487 -81 80 -16 188 -50 244 -76 29 -13 57 -24 62
-24 6 0 18 -4 28 -9 9 -4 38 -18 65 -30 33 -15 47 -26 47 -41 0 -23 -8 -24
-47 -9 -51 20 -187 60 -233 69 -324 60 -465 75 -614 67 -61 -4 -196 -11 -301
-17 -216 -11 -393 -26 -480 -40 -33 -5 -94 -14 -135 -21 -89 -13 -256 -55
-287 -70 -12 -7 -29 -9 -37 -6 -14 6 -16 49 -16 370 0 335 1 365 18 380 22 20
142 77 185 87 217 55 281 70 330 79 31 6 81 15 110 21 234 44 615 50 797 13z"/>
<path d="M6431 7986 c-30 -36 9 -70 109 -96 158 -42 296 -125 416 -253 134
-143 167 -212 184 -392 6 -55 13 -110 15 -123 6 -25 6 -25 88 0 l37 11 0 113
c0 138 -14 198 -75 311 -64 119 -85 148 -161 225 -115 114 -300 188 -540 213
-48 5 -63 3 -73 -9z"/>
<path d="M6746 5877 c-38 -28 -37 -29 289 -102 159 -37 287 -70 360 -94 87
-30 95 -28 95 17 0 44 -23 61 -140 98 -71 23 -324 65 -475 79 -38 4 -79 9 -90
11 -11 3 -29 -1 -39 -9z"/>
<path d="M5518 5682 c-30 -27 -32 -33 -36 -115 -4 -81 -3 -87 21 -111 31 -31
75 -34 107 -8 20 16 23 30 28 115 4 79 2 101 -12 122 -23 35 -66 33 -108 -3z"/>
<path d="M6667 5533 c-22 -21 25 -46 108 -57 78 -10 257 -47 355 -73 30 -8 69
-18 85 -23 17 -4 62 -20 100 -34 117 -46 155 -57 165 -51 17 11 12 90 -7 107
-56 49 -188 88 -434 127 -72 12 -362 15 -372 4z"/>
<path d="M3063 6150 c-32 -13 -30 -56 6 -112 30 -47 104 -107 271 -218 52 -35
128 -85 168 -112 40 -27 111 -71 157 -99 287 -169 741 -485 767 -532 7 -15 6
-23 -5 -35 -14 -13 -22 -13 -64 -2 -72 20 -130 51 -338 185 -104 67 -228 142
-275 167 -47 26 -141 84 -210 130 -69 46 -147 96 -175 112 -27 16 -106 66
-175 111 -174 115 -194 125 -245 125 -40 0 -45 -2 -45 -23 0 -13 13 -43 28
-68 26 -39 58 -71 166 -160 53 -44 435 -293 548 -357 59 -33 131 -79 161 -101
55 -40 203 -131 215 -131 4 -1 39 -23 77 -50 39 -27 111 -77 160 -111 50 -34
107 -75 128 -92 21 -16 42 -26 46 -21 62 73 121 184 121 229 0 16 5 25 12 23
14 -5 97 -114 221 -291 148 -211 337 -377 730 -644 34 -24 72 -50 85 -59 41
-28 16 -37 -82 -30 -112 9 -186 19 -296 41 -47 9 -116 20 -155 25 -139 17
-262 46 -340 80 -11 5 -72 30 -135 55 -200 80 -305 142 -353 207 -19 26 -19
28 -2 55 10 15 41 51 70 80 41 42 56 67 77 127 l26 76 -41 0 c-59 0 -328 143
-560 299 -56 37 -107 70 -113 72 -19 7 -382 236 -569 359 -229 151 -299 189
-323 174 -25 -16 -28 -81 -5 -106 34 -39 768 -568 787 -568 9 0 267 -156 326
-197 36 -25 108 -73 160 -108 111 -74 145 -107 136 -131 -10 -25 -89 -14 -161
23 -33 17 -197 113 -365 213 -168 101 -314 188 -325 194 -18 10 -240 158 -413
277 -144 98 -209 120 -238 82 -16 -22 -18 -57 -4 -83 6 -10 58 -52 118 -93 59
-41 138 -100 176 -131 38 -31 114 -87 170 -123 55 -36 220 -145 365 -242 243
-161 302 -206 491 -372 73 -64 233 -175 298 -208 24 -12 89 -40 145 -63 56
-22 125 -49 152 -60 100 -40 208 -67 328 -83 232 -30 282 -38 387 -62 112 -26
221 -73 310 -133 30 -20 84 -56 120 -80 74 -49 110 -79 110 -92 0 -5 -17 -16
-37 -24 -21 -8 -114 -52 -208 -99 -93 -46 -303 -148 -465 -227 -373 -182 -421
-209 -489 -278 -76 -76 -109 -140 -126 -247 -23 -140 3 -238 88 -330 76 -83
181 -123 318 -123 113 0 236 54 477 209 75 48 200 125 277 171 220 130 535
341 710 475 44 34 86 65 92 69 13 7 222 -130 313 -205 51 -42 387 -277 470
-328 30 -19 165 -107 300 -196 341 -224 397 -244 551 -194 118 38 200 106 242
198 27 60 29 193 4 267 -38 110 -161 224 -367 338 -107 60 -543 284 -752 388
-84 41 -138 74 -138 83 0 29 40 57 471 330 204 129 358 217 519 296 66 33 173
59 240 59 27 0 88 -9 135 -20 208 -49 241 -53 395 -54 161 -1 208 5 375 51
167 46 337 149 514 312 210 193 379 448 437 657 37 135 47 233 34 329 -23 175
-49 231 -166 354 -85 91 -181 141 -389 202 -16 4 -82 13 -145 19 -242 22 -495
-33 -766 -167 -182 -89 -276 -161 -412 -313 -157 -176 -220 -289 -309 -560
-55 -165 -75 -208 -128 -285 -87 -123 -183 -194 -440 -323 -88 -45 -187 -97
-220 -117 -59 -37 -254 -138 -555 -290 -85 -43 -179 -94 -208 -112 -29 -18
-59 -33 -67 -33 -8 0 -38 15 -67 34 -29 18 -84 49 -123 69 -91 46 -242 137
-444 267 -234 150 -288 187 -352 239 -31 25 -102 80 -159 121 -164 120 -261
222 -395 420 -91 135 -265 301 -397 381 -95 58 -387 240 -448 280 -94 61 -332
212 -360 228 -14 8 -51 30 -83 48 -33 18 -96 57 -140 86 -45 30 -111 71 -147
92 -36 21 -91 55 -123 76 -62 41 -109 54 -144 39z m6602 -414 c198 -42 353
-209 363 -389 20 -343 -275 -774 -653 -957 -261 -126 -476 -158 -703 -105 -59
14 -127 30 -152 35 -25 5 -66 14 -92 20 -85 18 -189 8 -283 -30 -60 -23 -216
-101 -277 -139 -435 -264 -610 -374 -708 -444 -46 -33 -90 -65 -97 -72 -33
-34 -183 -127 -195 -121 -7 3 -22 12 -32 18 -11 7 -53 34 -93 59 l-74 47 83
45 c46 25 184 94 308 154 124 60 277 139 340 175 63 36 185 101 271 145 226
116 265 146 369 285 142 189 182 265 280 539 23 64 58 145 78 180 71 123 305
334 452 409 83 42 314 120 440 148 66 14 305 13 375 -2z m-3591 -2011 c158
-90 341 -190 405 -221 64 -31 177 -86 251 -122 74 -36 155 -77 180 -92 25 -14
79 -40 120 -57 144 -60 397 -188 595 -301 110 -63 233 -132 274 -154 111 -60
152 -86 199 -132 57 -54 72 -84 72 -147 0 -48 -3 -55 -40 -91 -38 -35 -45 -38
-101 -38 -71 0 -121 22 -239 104 -41 29 -131 88 -200 131 -190 119 -306 197
-405 274 -49 38 -139 105 -199 148 -60 43 -143 105 -185 138 -88 69 -248 185
-255 185 -9 0 -324 189 -508 306 -103 66 -206 130 -229 144 -64 40 -82 59 -68
76 6 8 19 14 28 14 9 0 146 -74 305 -165z m32 -386 c27 -18 84 -50 127 -72 44
-22 81 -46 84 -53 6 -17 -27 -46 -147 -129 -160 -110 -258 -173 -435 -280 -93
-56 -228 -138 -300 -182 -173 -106 -243 -146 -345 -195 -72 -35 -94 -41 -150
-41 -42 -1 -76 5 -97 16 -115 61 -119 228 -7 326 20 18 241 134 498 262 514
255 616 308 664 350 18 16 38 29 45 29 7 0 35 -14 63 -31z"/>
<path d="M9305 5639 c-99 -11 -144 -23 -280 -76 -252 -96 -425 -249 -558 -493
-48 -89 -67 -160 -67 -251 0 -77 0 -78 37 -108 40 -33 92 -41 111 -18 6 6 13
30 17 52 35 221 37 228 115 326 56 71 130 137 259 230 178 129 472 208 671
179 103 -15 120 -8 120 44 0 64 -57 99 -191 115 -93 12 -131 12 -234 0z"/>
<path d="M9665 4911 c-11 -5 -56 -45 -100 -90 -206 -209 -527 -357 -760 -349
-46 2 -86 1 -88 -2 -3 -3 -8 -17 -12 -31 -5 -20 0 -33 18 -55 24 -28 29 -29
126 -32 155 -6 320 39 491 132 138 74 286 208 352 317 36 59 49 109 29 109 -5
0 -15 2 -23 4 -7 3 -22 1 -33 -3z"/>
<path d="M7922 2630 c-64 -39 -67 -97 -6 -154 33 -31 90 -56 127 -56 8 0 29
14 46 31 98 98 -46 252 -167 179z"/>
<path d="M4905 2701 c-28 -13 -70 -52 -83 -78 -34 -64 7 -144 89 -173 32 -12
41 -11 82 9 51 24 76 56 84 105 6 40 -19 98 -52 120 -30 20 -94 28 -120 17z"/>
<path d="M1410 1765 c-92 -19 -137 -33 -205 -67 -69 -35 -98 -58 -213 -171
-66 -66 -92 -99 -131 -177 -64 -124 -79 -166 -96 -275 -21 -129 -18 -192 11
-303 79 -297 264 -506 529 -594 61 -20 89 -23 220 -23 175 0 229 12 339 75 40
23 106 70 147 105 41 35 93 77 116 92 23 15 42 33 42 38 1 6 -42 48 -95 95
-53 47 -114 105 -136 130 -37 42 -40 43 -50 25 -24 -45 -155 -162 -213 -190
-52 -26 -71 -29 -150 -30 -82 0 -96 3 -157 34 -81 40 -144 97 -190 171 -40 66
-53 101 -68 197 -29 178 69 388 224 482 74 44 168 64 239 50 133 -27 196 -59
277 -143 25 -25 48 -46 52 -46 4 0 40 33 80 73 40 40 95 90 121 111 26 21 47
44 45 50 -3 12 -124 114 -195 164 -88 63 -224 114 -350 132 -85 12 -107 11
-193 -5z"/>
<path d="M2314 1773 c-15 -5 -6 -41 18 -73 45 -57 48 -81 48 -344 1 -416 14
-669 40 -751 35 -114 79 -190 156 -274 89 -95 171 -139 311 -166 243 -47 463
16 604 173 67 74 153 259 175 377 4 22 6 232 5 466 -3 456 -2 461 49 526 41
53 40 53 -220 53 -132 0 -240 -4 -240 -9 0 -4 19 -32 43 -62 l42 -53 0 -441
c0 -346 -3 -449 -14 -480 -18 -52 -83 -146 -121 -174 -122 -89 -298 -79 -387
23 -86 97 -96 165 -97 696 l-1 405 28 42 c15 24 27 46 27 50 0 5 -91 8 -203 9
-111 0 -214 3 -227 6 -14 3 -30 4 -36 1z"/>
<path d="M4173 1763 c-140 -3 -203 -7 -203 -14 0 -7 14 -36 31 -66 l31 -54 5
-672 5 -672 -32 -48 c-18 -26 -29 -54 -26 -62 5 -13 76 -15 541 -15 l535 0 0
188 c0 142 -3 193 -13 207 -10 12 -16 14 -21 7 -4 -7 -16 -12 -27 -12 -11 0
-36 -12 -56 -27 l-35 -27 -256 2 c-140 1 -258 4 -261 7 -7 8 -19 522 -20 865
l-1 275 30 50 c37 63 38 76 3 73 -16 -2 -119 -4 -230 -5z"/>
<path d="M5433 1763 c-250 -4 -255 -6 -179 -64 71 -55 71 -49 69 -776 -2 -680
-2 -673 -53 -706 -27 -16 -25 -35 3 -42 46 -10 450 -10 454 0 2 6 -12 35 -31
64 -23 35 -37 71 -41 105 -4 28 -5 328 -3 666 l4 615 26 50 c14 28 29 60 32
73 7 20 4 22 -26 20 -18 -2 -133 -4 -255 -5z"/>
<path d="M5970 1758 c1 -7 19 -31 40 -53 22 -22 44 -53 50 -70 12 -38 30 -646
30 -1046 l0 -305 -34 -40 c-19 -22 -36 -49 -38 -60 -3 -18 4 -19 217 -15 259
4 266 6 218 73 l-30 43 -4 290 c-4 388 -1 545 11 545 5 0 27 -30 49 -67 22
-38 84 -117 138 -177 54 -60 132 -150 173 -200 144 -176 339 -411 382 -460
l44 -49 79 -4 c44 -2 91 -5 103 -6 l24 -2 -1 715 c0 754 1 768 46 823 13 16
23 37 23 48 0 18 -9 19 -237 15 -131 -2 -240 -4 -242 -5 -2 -1 14 -18 36 -39
28 -27 42 -51 46 -77 7 -41 -2 -740 -9 -764 -3 -8 -16 3 -36 30 -17 24 -56 73
-87 108 -31 35 -85 102 -121 147 -36 46 -93 119 -127 163 -35 44 -116 137
-180 208 -65 71 -138 152 -163 181 l-44 53 -136 -3 c-74 -1 -154 1 -177 6 -33
6 -43 5 -43 -6z"/>
<path d="M10737 1763 c-6 -10 1 -27 36 -85 l28 -46 8 -642 c4 -353 5 -658 1
-679 -4 -21 -21 -58 -38 -84 -18 -25 -32 -50 -32 -55 0 -6 455 -9 477 -3 1 1
-9 25 -22 54 l-23 52 -1 645 c0 355 2 664 5 687 4 27 18 56 40 82 61 71 63 70
-188 68 -123 -1 -237 2 -255 6 -17 5 -33 5 -36 0z"/>
<path d="M8368 1747 l-127 -9 -52 -127 c-28 -69 -74 -178 -102 -241 -27 -63
-74 -182 -103 -265 -54 -152 -134 -365 -158 -420 -7 -16 -23 -57 -36 -90 -12
-33 -28 -73 -35 -90 -7 -16 -23 -55 -36 -85 -13 -30 -38 -81 -56 -113 -18 -33
-33 -62 -33 -65 0 -4 -9 -18 -20 -32 -11 -14 -20 -28 -20 -33 0 -4 96 -6 213
-5 l212 3 5 65 c3 36 17 95 30 132 l23 67 296 3 c233 2 300 0 312 -10 29 -23
62 -145 54 -198 -5 -34 -3 -49 7 -55 21 -14 438 -11 438 2 0 7 -17 39 -38 73
-21 34 -44 77 -52 96 -7 19 -46 114 -86 210 -40 96 -100 245 -132 330 -83 215
-169 421 -242 579 -34 73 -70 159 -80 192 -22 67 -38 100 -48 97 -4 0 -64 -5
-134 -11z m57 -612 c15 -38 31 -79 35 -90 5 -11 16 -40 24 -65 8 -25 28 -78
45 -119 16 -41 27 -81 24 -88 -4 -10 -43 -13 -174 -13 l-169 0 0 29 c0 16 29
103 64 193 35 89 72 190 81 223 l18 60 12 -30 c7 -17 25 -61 40 -100z"/>
<path d="M9275 1750 c-4 -6 6 -29 22 -51 15 -22 33 -49 39 -60 8 -13 14 -228
19 -678 7 -638 6 -660 -12 -702 -11 -24 -27 -50 -36 -58 -10 -7 -17 -20 -17
-27 0 -11 20 -14 88 -13 156 1 362 15 373 26 8 8 3 25 -16 57 -26 44 -28 57
-34 214 -4 92 -6 172 -4 177 2 6 36 12 76 13 39 1 88 4 108 7 l36 6 46 -91
c26 -50 78 -139 115 -198 38 -59 79 -133 91 -164 20 -49 27 -57 45 -53 11 2
98 9 191 16 94 6 172 13 175 16 6 5 -2 18 -122 196 -54 79 -98 147 -98 151 0
3 -12 25 -26 47 -44 70 -74 127 -74 141 0 7 28 31 61 53 66 44 145 141 186
231 84 185 39 432 -106 581 -59 61 -133 104 -224 130 -39 12 -144 17 -432 24
-209 4 -399 11 -421 15 -27 4 -44 2 -49 -6z m815 -364 c110 -55 139 -197 63
-313 -29 -46 -63 -68 -130 -88 -56 -15 -268 -30 -311 -21 l-29 7 4 217 c1 119
3 219 3 222 0 3 80 4 177 2 162 -3 182 -5 223 -26z"/>
<path d="M12155 1753 c-22 -1 -73 -5 -112 -9 -40 -3 -73 -9 -73 -14 0 -4 -27
-64 -59 -132 -32 -67 -69 -152 -80 -188 -12 -36 -41 -114 -65 -175 -25 -60
-57 -148 -71 -195 -15 -47 -30 -87 -34 -90 -3 -3 -16 -34 -28 -70 -26 -81
-122 -326 -156 -400 -14 -30 -43 -98 -65 -150 -21 -52 -49 -113 -60 -134 -12
-22 -20 -41 -18 -43 2 -2 66 1 142 7 76 6 168 10 204 8 l65 -3 8 54 c4 30 11
59 16 65 5 6 18 41 30 78 12 36 27 71 34 76 7 5 132 13 279 17 147 4 275 8
285 9 23 1 55 -63 77 -157 16 -64 16 -71 1 -94 -30 -45 -21 -48 171 -48 98 0
203 -4 232 -9 42 -7 52 -6 52 5 0 8 -33 82 -74 164 -41 83 -100 219 -131 303
-32 85 -75 192 -96 238 -36 77 -54 128 -89 244 -13 41 -81 210 -115 284 -94
207 -135 311 -135 346 0 21 -19 23 -135 13z m-12 -530 c3 -10 14 -43 26 -74
11 -31 30 -91 41 -135 12 -43 39 -114 61 -157 28 -54 36 -79 27 -81 -26 -8
-338 -15 -342 -7 -3 4 8 46 25 92 17 46 53 150 82 232 48 139 68 170 80 130z"/>
</g>
</svg>
