<?xml version="1.0" standalone="no"?>
<!DOCTYPE svg PUBLIC "-//W3C//DTD SVG 20010904//EN"
 "http://www.w3.org/TR/2001/REC-SVG-20010904/DTD/svg10.dtd">
<svg version="1.0" xmlns="http://www.w3.org/2000/svg"
 width="949.000000pt" height="702.000000pt" viewBox="0 0 949.000000 702.000000"
 preserveAspectRatio="xMidYMid meet">

<g transform="translate(0.000000,702.000000) scale(0.100000,-0.100000)"
fill="#000000" stroke="none">
<path d="M4690 6840 c-130 -21 -322 -88 -431 -151 -155 -89 -385 -293 -429
-379 l-20 -40 -118 0 c-281 -1 -418 -38 -615 -168 -88 -57 -216 -179 -257
-242 -69 -108 -138 -311 -160 -473 -8 -57 -8 -115 0 -208 16 -190 57 -307 154
-435 70 -93 235 -246 327 -303 80 -49 210 -103 282 -116 l35 -7 6 -81 c3 -45
9 -307 13 -582 l8 -500 27 -46 c33 -57 69 -84 183 -141 135 -68 161 -74 465
-122 169 -27 329 -36 650 -36 339 0 586 17 725 49 44 10 98 22 120 25 241 41
509 148 547 220 25 47 29 114 37 636 5 315 13 556 19 570 7 20 24 30 68 44 98
30 244 103 320 161 39 29 107 96 150 149 63 75 89 117 126 203 76 175 83 210
83 428 -1 266 -26 361 -147 541 -121 181 -216 267 -389 349 -88 41 -273 85
-362 85 -35 0 -97 3 -138 6 l-74 7 -39 54 c-87 119 -186 213 -315 297 -155
102 -180 115 -306 156 -135 43 -422 69 -545 50z m291 -255 c247 -46 392 -111
522 -235 102 -96 160 -169 211 -261 44 -80 58 -120 102 -284 19 -71 42 -137
51 -147 39 -43 109 -7 134 70 12 35 6 263 -8 298 -5 14 3 15 63 9 230 -23 326
-66 469 -209 112 -112 183 -216 223 -328 24 -66 26 -87 26 -213 0 -132 -1
-145 -32 -235 -41 -119 -96 -212 -173 -295 -70 -74 -188 -159 -215 -153 -16 3
-9 14 37 63 102 109 208 248 248 324 59 114 74 184 68 321 -5 127 -26 202 -88
307 -51 86 -162 194 -239 231 -71 35 -235 81 -246 69 -17 -17 21 -61 108 -125
211 -156 292 -293 305 -512 3 -62 1 -136 -6 -180 -17 -109 -72 -213 -98 -186
-4 4 3 48 15 99 32 133 37 208 18 297 -29 138 -87 226 -186 284 -31 18 -31 16
18 -48 63 -81 81 -139 89 -276 11 -199 -24 -306 -148 -445 -122 -139 -197
-239 -218 -294 -31 -82 -81 -125 -81 -71 0 19 -1 19 -34 -1 -26 -15 -48 -19
-88 -17 -80 5 -78 28 13 154 107 147 223 324 238 364 7 19 20 52 29 73 12 29
13 43 4 62 -13 29 -66 58 -90 50 -9 -3 -49 -51 -89 -108 -178 -252 -361 -455
-447 -496 -34 -17 -54 -19 -119 -14 -43 3 -80 10 -83 15 -3 5 20 37 52 71 31
34 70 80 87 102 37 51 114 203 138 274 22 62 25 149 6 174 -12 18 -74 26 -95
13 -6 -3 -33 -48 -61 -100 -107 -198 -224 -326 -362 -396 -81 -40 -82 -40
-196 -40 -109 0 -119 2 -177 31 -71 36 -135 84 -189 143 -45 48 -153 210 -215
320 -24 42 -50 80 -58 83 -20 8 -61 -22 -80 -58 -14 -27 -14 -40 -4 -98 28
-151 82 -253 219 -412 50 -57 90 -107 91 -110 0 -9 -26 -15 -126 -30 -79 -12
-82 -11 -114 12 -18 13 -91 87 -162 164 -126 136 -199 237 -267 373 -35 69
-53 83 -91 72 -64 -18 -70 -26 -70 -94 0 -131 47 -229 205 -420 58 -70 110
-137 116 -148 12 -23 5 -48 -13 -48 -7 0 -51 -16 -98 -35 -46 -19 -88 -35 -93
-35 -4 0 -18 21 -29 47 -36 82 -239 413 -278 454 -31 33 -43 39 -78 39 -79 0
-90 -61 -37 -193 34 -82 33 -92 -6 -71 -37 18 -116 74 -177 123 -52 42 -154
191 -176 257 -44 137 -50 377 -12 527 31 121 42 142 124 228 83 89 161 149
249 193 95 48 175 66 305 69 l112 2 16 -125 c23 -171 35 -190 124 -190 57 0
61 9 69 120 8 108 48 268 84 329 42 71 207 232 290 280 91 54 193 97 313 132
113 33 231 38 361 14z m120 -2255 c273 -27 791 -154 864 -212 26 -20 27 -24
23 -104 -1 -45 -6 -85 -9 -88 -3 -3 -43 7 -90 23 -159 55 -596 131 -755 131
l-75 0 3 -32 c3 -31 6 -34 68 -50 36 -10 94 -23 130 -29 295 -48 533 -108 675
-169 l45 -19 0 -136 c0 -74 -3 -135 -7 -135 -5 0 -48 17 -98 39 -186 79 -476
121 -840 121 -121 0 -155 -6 -155 -26 0 -20 10 -23 160 -44 316 -44 558 -92
663 -132 45 -17 109 -40 142 -53 116 -42 173 -81 151 -102 -3 -3 -59 10 -125
31 -210 65 -548 119 -751 118 -156 0 -607 -27 -800 -48 -176 -19 -374 -54
-494 -89 -49 -14 -95 -24 -103 -21 -19 8 -19 764 0 789 38 51 270 125 598 191
241 48 563 67 780 46z"/>
<path d="M4835 6471 c-4 -7 -4 -23 -1 -35 6 -25 48 -46 171 -86 153 -49 280
-134 405 -267 132 -140 164 -217 190 -448 7 -55 13 -102 15 -104 2 -2 30 3 62
11 l58 14 0 150 c-1 148 -1 149 -36 229 -131 300 -307 449 -607 515 -117 26
-247 37 -257 21z"/>
<path d="M5172 4218 c-28 -28 -35 -25 296 -103 128 -30 287 -70 354 -90 66
-20 127 -34 134 -31 17 6 18 40 3 68 -29 54 -256 111 -614 153 -157 18 -158
18 -173 3z"/>
<path d="M3865 4007 c-29 -29 -33 -40 -39 -107 -9 -90 1 -121 44 -142 37 -18
72 -13 97 14 26 28 32 207 9 243 -24 37 -69 34 -111 -8z"/>
<path d="M5091 3851 c-26 -16 33 -42 146 -63 215 -40 441 -97 565 -142 70 -25
134 -46 142 -46 23 0 30 46 14 88 -12 32 -22 40 -88 68 -79 32 -273 78 -400
94 -95 12 -360 13 -379 1z"/>
<path d="M1248 4513 c-9 -2 -20 -13 -23 -24 -16 -48 38 -126 142 -206 84 -65
399 -273 585 -387 263 -161 704 -468 748 -521 10 -12 11 -21 3 -33 -27 -42
-143 1 -343 128 -63 40 -205 127 -315 193 -110 66 -238 146 -285 177 -47 31
-128 83 -180 115 -52 32 -147 92 -210 133 -160 104 -196 122 -246 122 -24 0
-46 -4 -49 -10 -11 -18 32 -98 77 -142 24 -24 68 -64 98 -89 63 -53 452 -311
580 -384 47 -27 148 -90 225 -141 77 -50 160 -102 185 -114 24 -12 137 -87
250 -167 l205 -144 28 33 c33 39 107 183 107 209 0 57 35 21 185 -188 54 -76
130 -175 168 -221 126 -150 342 -328 660 -546 70 -48 125 -92 122 -97 -13 -20
-207 -4 -395 32 -57 11 -151 26 -209 34 -162 23 -259 50 -439 121 -225 89
-315 137 -385 205 -69 66 -69 66 20 162 29 32 60 72 69 89 14 27 54 134 54
145 0 1 -18 3 -41 3 -72 0 -272 106 -614 324 -49 31 -190 120 -312 196 -122
76 -306 194 -408 260 -313 205 -355 220 -355 127 0 -36 6 -48 33 -74 39 -37
174 -138 417 -313 287 -207 375 -267 411 -284 19 -8 62 -32 96 -53 34 -21 95
-58 135 -82 130 -79 378 -253 404 -284 25 -30 25 -31 7 -44 -40 -30 -114 0
-364 147 -440 260 -558 333 -813 504 -280 188 -355 228 -395 206 -24 -12 -36
-50 -27 -84 4 -15 34 -45 78 -77 40 -29 141 -103 223 -164 83 -62 294 -208
470 -325 350 -233 415 -280 582 -423 123 -105 278 -218 363 -265 66 -36 237
-107 375 -155 118 -41 198 -58 437 -92 355 -50 451 -83 677 -233 131 -86 184
-130 175 -144 -4 -6 -52 -32 -108 -58 -472 -223 -1018 -497 -1092 -549 -75
-52 -141 -130 -173 -202 -28 -62 -44 -170 -39 -248 15 -206 191 -354 423 -355
133 0 257 52 515 216 74 47 225 141 335 208 236 145 508 327 693 464 81 60
138 96 147 92 25 -9 182 -114 279 -185 246 -181 446 -318 836 -573 371 -241
436 -268 568 -234 132 33 243 112 294 208 20 38 23 56 23 163 0 110 -2 124
-27 170 -49 94 -157 196 -298 282 -85 52 -401 218 -725 382 -143 72 -271 140
-285 151 l-25 21 42 37 c47 41 474 316 678 437 195 115 384 210 458 228 81 21
190 21 277 2 229 -50 290 -57 480 -52 167 4 196 7 297 35 254 70 435 181 658
406 348 349 504 740 430 1081 -26 122 -58 178 -160 281 -104 104 -172 144
-342 200 -103 34 -116 36 -283 41 -134 4 -198 1 -275 -11 -198 -33 -491 -150
-670 -267 -96 -63 -265 -230 -358 -354 -87 -116 -152 -250 -222 -455 -67 -195
-98 -262 -166 -352 -84 -113 -201 -194 -484 -335 -71 -36 -170 -89 -220 -118
-49 -29 -243 -131 -430 -227 -187 -97 -360 -187 -384 -201 -48 -28 -57 -26
-131 19 -19 11 -86 49 -148 83 -230 125 -687 419 -842 540 -47 37 -128 99
-180 138 -100 74 -227 200 -296 293 -22 30 -67 91 -99 135 -72 98 -206 239
-301 315 -39 31 -150 106 -245 165 -96 60 -295 186 -444 280 -148 95 -315 198
-369 229 -55 32 -124 75 -155 95 -84 57 -306 190 -354 211 -42 20 -57 22 -89
13z m7033 -443 c141 -26 287 -136 350 -264 30 -63 34 -80 37 -170 5 -130 -21
-244 -88 -383 -69 -145 -138 -241 -265 -368 -172 -173 -350 -276 -600 -350
-117 -35 -331 -45 -440 -22 -354 78 -359 79 -436 73 -157 -11 -285 -73 -769
-369 -288 -177 -444 -279 -560 -368 -47 -36 -111 -79 -142 -97 -56 -33 -58
-33 -90 -16 -25 13 -132 80 -177 111 -10 7 51 41 336 182 166 83 391 199 500
258 109 60 216 117 238 127 94 42 231 132 283 184 82 82 214 271 271 387 27
55 72 163 101 240 90 244 118 293 244 419 193 193 322 276 551 352 229 76 265
83 441 83 89 1 186 -3 215 -9z m-4056 -2018 c107 -58 246 -134 410 -227 131
-74 745 -383 865 -435 113 -49 470 -231 600 -305 63 -37 189 -107 279 -157
164 -92 266 -170 297 -229 8 -15 14 -52 14 -82 0 -52 -2 -56 -46 -97 l-46 -43
-67 5 c-95 7 -65 -10 -631 361 -149 98 -227 155 -685 498 -115 86 -255 183
-310 214 -122 70 -272 161 -515 314 -102 65 -206 130 -233 147 -50 31 -68 61
-46 75 20 12 17 14 114 -39z m266 -540 c24 -16 73 -43 109 -62 103 -54 121
-69 111 -89 -21 -38 -306 -229 -756 -504 -319 -195 -408 -247 -514 -300 -96
-48 -110 -52 -185 -55 -69 -2 -87 1 -120 20 -50 29 -86 95 -86 157 0 55 35
135 76 173 35 32 272 157 768 405 204 102 403 207 441 233 39 26 79 48 91 49
11 0 40 -12 65 -27z"/>
<path d="M7906 3969 c-204 -28 -446 -130 -602 -253 -135 -107 -268 -283 -331
-437 -22 -54 -26 -81 -27 -168 l-1 -103 35 -29 c19 -16 49 -31 67 -35 43 -8
60 21 78 132 8 48 22 112 31 143 29 100 155 241 324 361 110 79 182 116 300
157 149 53 245 67 412 60 96 -4 150 -3 154 4 3 6 6 27 6 47 0 52 -41 86 -131
106 -91 21 -227 27 -315 15z"/>
<path d="M8272 3177 c-15 -12 -65 -57 -112 -102 -226 -215 -542 -355 -800
-355 -89 0 -90 0 -96 -26 -10 -38 17 -76 63 -92 48 -17 198 -10 304 14 197 45
400 154 547 296 102 98 172 200 172 251 0 34 -41 41 -78 14z"/>
<path d="M6443 761 c-114 -52 -68 -179 80 -222 53 -15 117 43 117 106 0 41
-37 93 -81 115 -47 25 -63 25 -116 1z"/>
<path d="M3190 818 c-76 -52 -99 -127 -57 -188 49 -73 134 -88 202 -35 44 33
58 60 57 108 -3 77 -43 121 -122 132 -37 5 -51 2 -80 -17z"/>
</g>
</svg>
