<?xml version="1.0" standalone="no"?>
<!DOCTYPE svg PUBLIC "-//W3C//DTD SVG 20010904//EN"
 "http://www.w3.org/TR/2001/REC-SVG-20010904/DTD/svg10.dtd">
<svg version="1.0" xmlns="http://www.w3.org/2000/svg"
 width="433.000000pt" height="162.000000pt" viewBox="0 0 433.000000 162.000000"
 preserveAspectRatio="xMidYMid meet">

<g transform="translate(0.000000,162.000000) scale(0.100000,-0.100000)"
fill="#000000" stroke="none">
<path d="M430 1230 l0 -40 1685 0 1685 0 0 40 0 40 -1685 0 -1685 0 0 -40z"/>
<path d="M1593 1068 c-39 -13 -44 -38 -8 -38 l25 0 0 -154 c0 -159 -8 -206
-35 -206 -8 0 -15 -4 -15 -10 0 -6 30 -10 70 -10 40 0 70 4 70 10 0 6 -7 10
-15 10 -29 0 -35 39 -35 224 0 201 3 193 -57 174z"/>
<path d="M1784 1066 c-11 -29 0 -51 26 -51 21 0 25 5 25 30 0 24 -5 31 -23 33
-13 2 -24 -3 -28 -12z"/>
<path d="M833 1045 c-75 -38 -107 -89 -111 -179 -3 -60 0 -78 21 -116 65 -123
229 -146 326 -46 44 45 31 67 -15 27 -119 -105 -273 -31 -274 132 -1 171 184
241 266 101 43 -74 56 -54 28 42 -16 55 -22 62 -41 43 -8 -8 -19 -6 -41 5 -45
23 -101 20 -159 -9z"/>
<path d="M2930 1051 c0 -5 10 -11 23 -13 22 -3 22 -4 22 -183 0 -179 0 -180
-22 -183 -13 -2 -23 -8 -23 -13 0 -5 34 -9 75 -9 43 0 75 4 75 10 0 6 -9 10
-19 10 -10 0 -22 7 -25 16 -3 9 -6 85 -6 169 0 84 3 160 6 169 3 9 15 16 25
16 10 0 19 5 19 10 0 6 -32 10 -75 10 -41 0 -75 -4 -75 -9z"/>
<path d="M3215 874 c-41 -111 -76 -191 -87 -198 -31 -19 -20 -26 42 -26 33 0
60 4 60 10 0 6 -9 10 -20 10 -25 0 -26 20 -4 84 l16 47 76 -3 75 -3 18 -54
c19 -56 18 -71 -7 -71 -8 0 -14 -4 -14 -10 0 -6 30 -10 70 -10 65 0 93 12 52
22 -13 4 -37 58 -87 196 -66 180 -72 192 -95 192 -24 0 -30 -12 -95 -186z
m118 34 l26 -78 -60 0 c-32 0 -59 3 -59 8 0 20 55 161 61 155 3 -5 18 -43 32
-85z"/>
<path d="M1130 931 c0 -5 12 -11 28 -13 l27 -3 5 -113 c5 -111 6 -114 34 -139
25 -21 37 -24 73 -20 24 2 61 16 83 31 l40 26 0 -30 c0 -29 2 -30 45 -30 25 0
45 5 45 10 0 6 -7 10 -15 10 -25 0 -35 45 -35 166 l0 114 -55 0 c-30 0 -55 -4
-55 -10 0 -5 11 -10 25 -10 35 0 46 -29 43 -117 l-3 -77 -40 -23 c-46 -26 -83
-29 -111 -9 -16 13 -19 29 -22 130 l-4 116 -54 0 c-30 0 -54 -4 -54 -9z"/>
<path d="M1773 928 c-39 -13 -44 -38 -8 -38 25 0 25 -1 25 -91 0 -93 -10 -129
-35 -129 -8 0 -15 -4 -15 -10 0 -6 30 -10 70 -10 72 0 87 8 48 25 -22 10 -23
16 -26 138 -3 137 -1 133 -59 115z"/>
<path d="M1953 928 c-39 -13 -44 -38 -8 -38 25 0 25 -1 25 -91 0 -93 -10 -129
-35 -129 -8 0 -15 -4 -15 -10 0 -6 32 -10 75 -10 41 0 75 4 75 9 0 5 -10 11
-22 13 -22 3 -23 8 -26 95 -3 90 -2 92 23 109 15 10 45 18 68 18 53 1 67 -23
67 -117 0 -72 -11 -107 -35 -107 -8 0 -15 -4 -15 -10 0 -6 30 -10 70 -10 40 0
70 4 70 10 0 6 -7 10 -15 10 -25 0 -35 36 -35 134 0 91 -1 95 -27 116 -35 27
-96 23 -141 -9 -38 -27 -42 -26 -42 4 0 27 -7 29 -57 13z"/>
<path d="M2393 925 c-38 -16 -66 -56 -57 -79 10 -25 37 -15 53 19 17 37 28 45
64 45 46 0 67 -17 67 -54 0 -34 0 -34 -65 -45 -85 -15 -113 -29 -131 -62 -17
-34 -6 -69 28 -93 30 -21 74 -20 127 4 l44 20 19 -20 c15 -15 30 -20 56 -18
40 3 58 28 20 28 -41 0 -48 17 -48 118 0 51 -4 102 -10 112 -20 37 -108 51
-167 25z m127 -175 c0 -36 -3 -41 -40 -60 -65 -33 -110 -23 -110 25 0 30 27
51 80 63 70 15 70 16 70 -28z"/>
<path d="M2698 927 c-43 -12 -51 -37 -13 -37 l26 0 -3 -107 c-3 -103 -4 -108
-25 -111 -13 -2 -23 -8 -23 -13 0 -5 34 -9 75 -9 41 0 75 4 75 9 0 5 -10 11
-22 13 -22 3 -23 8 -26 92 -2 72 0 92 14 107 25 28 53 33 74 14 11 -10 26 -15
35 -12 19 8 20 41 0 57 -18 15 -78 6 -95 -15 -17 -21 -30 -19 -30 5 0 22 -7
23 -62 7z"/>
<path d="M430 490 l0 -40 1685 0 1685 0 0 40 0 40 -1685 0 -1685 0 0 -40z"/>
</g>
</svg>
