<?xml version="1.0" encoding="UTF-8" standalone="no"?>
<!-- Created with Inkscape (http://www.inkscape.org/) -->

<svg
   width="63.235413mm"
   height="17.19792mm"
   viewBox="0 0 63.235413 17.19792"
   version="1.1"
   id="svg1"
   inkscape:version="1.4 (86a8ad7, 2024-10-11)"
   sodipodi:docname="culinaria.svg"
   xmlns:inkscape="http://www.inkscape.org/namespaces/inkscape"
   xmlns:sodipodi="http://sodipodi.sourceforge.net/DTD/sodipodi-0.dtd"
   xmlns="http://www.w3.org/2000/svg"
   xmlns:svg="http://www.w3.org/2000/svg">
  <sodipodi:namedview
     id="namedview1"
     pagecolor="#ffffff"
     bordercolor="#666666"
     borderopacity="1.0"
     inkscape:showpageshadow="2"
     inkscape:pageopacity="0.0"
     inkscape:pagecheckerboard="0"
     inkscape:deskcolor="#d1d1d1"
     inkscape:document-units="mm"
     inkscape:zoom="0.70500941"
     inkscape:cx="-126.23945"
     inkscape:cy="349.64072"
     inkscape:window-width="1142"
     inkscape:window-height="993"
     inkscape:window-x="303"
     inkscape:window-y="78"
     inkscape:window-maximized="0"
     inkscape:current-layer="layer1" />
  <defs
     id="defs1">
    <mask
       id="path-14-outside-1_70_2081-8"
       maskUnits="userSpaceOnUse"
       x="177"
       y="52"
       width="156"
       height="33"
       fill="#000000">
      <rect
         fill="#ffffff"
         x="177"
         y="52"
         width="156"
         height="33"
         id="rect13-8" />
      <path
         d="m 191.96,83.16 c -4.987,0 -8.68,-1.4133 -11.08,-4.24 -0.853,-1.0133 -1.547,-2.36 -2.08,-4.04 -0.533,-1.68 -0.8,-3.72 -0.8,-6.12 0,-2.4 0.387,-4.5467 1.16,-6.44 0.8,-1.92 1.88,-3.4 3.24,-4.44 2.64,-1.9467 5.827,-2.92 9.56,-2.92 1.067,0 2.107,0.0933 3.12,0.28 1.013,0.16 1.773,0.3333 2.28,0.52 l 0.72,0.28 -0.12,0.4 c -1.813,-0.72 -3.813,-1.08 -6,-1.08 -2.827,0 -5.187,0.92 -7.08,2.76 -1.44,1.36 -2.453,3.36 -3.04,6 -0.347,1.4933 -0.52,3.32 -0.52,5.48 0,2.16 0.307,4.16 0.92,6 0.613,1.8133 1.307,3.16 2.08,4.04 0.8,0.88 1.76,1.5867 2.88,2.12 1.12,0.5067 2.013,0.8 2.68,0.88 0.667,0.08 1.467,0.12 2.4,0.12 0.96,0 2.04,-0.0933 3.24,-0.28 1.2,-0.1867 2.107,-0.36 2.72,-0.52 l 0.92,-0.28 0.12,0.4 c -2.027,0.72 -4.467,1.08 -7.32,1.08 z m 13.128,-4.76 c 0,2.1067 0.56,3.4533 1.68,4.04 0.533,0.2667 1.213,0.4 2.04,0.4 1.68,0 3.173,-0.64 4.48,-1.92 1.333,-1.28 2.053,-2.4667 2.16,-3.56 V 63 h 2.8 v 17.16 c 0,0.7733 0.146,1.3733 0.44,1.8 0.32,0.4 0.64,0.6133 0.96,0.64 l 0.44,0.08 h 1.24 V 83 h -2.44 c -1.094,0 -1.934,-0.24 -2.52,-0.72 -0.56,-0.48 -0.854,-0.96 -0.88,-1.44 l -0.04,-0.68 v -1.72 c -0.48,1.1467 -1.334,2.2267 -2.56,3.24 -1.227,0.9867 -2.574,1.48 -4.04,1.48 -1.44,0 -2.627,-0.1333 -3.56,-0.4 -0.907,-0.2933 -1.56,-0.6933 -1.961,-1.2 -0.693,-0.8267 -1.039,-1.8933 -1.039,-3.2 V 63 h 2.8 z m 23.334,4.6 c -2.346,0 -3.826,-0.6133 -4.44,-1.84 -0.133,-0.2667 -0.2,-0.5067 -0.2,-0.72 v -27.4 h 2.8 v 27.12 c 0,0.7733 0.147,1.3733 0.44,1.8 0.32,0.4 0.64,0.6133 0.96,0.64 l 0.44,0.08 h 1.24 V 83 Z m 7.555,0 c -1.093,0 -1.933,-0.24 -2.52,-0.72 -0.56,-0.48 -0.853,-0.96 -0.88,-1.44 l -0.04,-0.68 V 63 h 2.8 v 17.16 c 0,0.7733 0.147,1.3733 0.44,1.8 0.32,0.4 0.627,0.6133 0.92,0.64 l 0.48,0.08 h 1.24 V 83 Z m -3.2,-24.48 c -0.32,-0.32 -0.48,-0.72 -0.48,-1.2 0,-0.48 0.16,-0.88 0.48,-1.2 0.32,-0.3467 0.72,-0.52 1.2,-0.52 0.48,0 0.88,0.1733 1.2,0.52 0.347,0.32 0.52,0.72 0.52,1.2 0,0.48 -0.173,0.88 -0.52,1.2 -0.32,0.32 -0.72,0.48 -1.2,0.48 -0.48,0 -0.88,-0.16 -1.2,-0.48 z M 257.442,83 c -1.093,0 -1.933,-0.24 -2.52,-0.72 -0.56,-0.48 -0.853,-0.96 -0.88,-1.44 l -0.04,-0.68 V 67.6 c 0,-2.1067 -0.546,-3.4533 -1.64,-4.04 -0.56,-0.2667 -1.253,-0.4 -2.08,-0.4 -1.706,0 -3.24,0.68 -4.6,2.04 -1.36,1.3333 -2.04,2.5333 -2.04,3.6 V 83 h -2.8 V 63 h 2.8 v 4.56 c 0.454,-1.1467 1.294,-2.2133 2.52,-3.2 1.227,-1.0133 2.574,-1.52 4.04,-1.52 1.467,0 2.654,0.1467 3.56,0.44 0.934,0.2667 1.614,0.6533 2.04,1.16 0.667,0.8267 1,1.8933 1,3.2 v 12.52 c 0,0.7733 0.147,1.3733 0.44,1.8 0.32,0.4 0.64,0.6133 0.96,0.64 l 0.44,0.08 h 1.24 V 83 Z m 20.975,0 c -1.813,0 -3.053,-0.3467 -3.72,-1.04 -0.613,-0.5867 -0.92,-1.0933 -0.92,-1.52 V 79.6 c -1.307,2.3733 -3.4,3.56 -6.28,3.56 -3.36,0 -5.267,-1.52 -5.72,-4.56 -0.053,-0.32 -0.08,-0.64 -0.08,-0.96 0,-0.3467 0.053,-0.72 0.16,-1.12 0.107,-0.4 0.413,-0.84 0.92,-1.32 1.013,-0.96 3.24,-1.5467 6.68,-1.76 0.853,-0.08 1.64,-0.12 2.36,-0.12 0.72,0 1.373,0.0267 1.96,0.08 v -6.64 c -0.053,-0.0267 -0.053,-0.1467 0,-0.36 0.053,-0.24 0,-0.5333 -0.16,-0.88 -0.133,-0.3733 -0.32,-0.7333 -0.56,-1.08 -0.24,-0.3467 -0.667,-0.64 -1.28,-0.88 -0.613,-0.2667 -1.413,-0.4 -2.4,-0.4 -0.987,0 -2.147,0.1867 -3.48,0.56 -1.307,0.3467 -2.267,0.6933 -2.88,1.04 l -0.16,-0.28 c 2.373,-1.0933 4.787,-1.64 7.24,-1.64 2.747,0 4.56,0.4933 5.44,1.48 0.693,0.7733 1.04,1.5867 1.04,2.44 v 13.4 c 0,0.7733 0.147,1.3733 0.44,1.8 0.32,0.4 0.64,0.6133 0.96,0.64 l 0.44,0.08 h 1.24 V 83 Z m -10.28,-0.16 c 1.413,0 2.68,-0.48 3.8,-1.44 1.147,-0.9867 1.76,-1.9333 1.84,-2.84 v -4.84 c -0.72,-0.0533 -1.453,-0.08 -2.2,-0.08 -0.72,0 -1.44,0.04 -2.16,0.12 -2.027,0.24 -3.347,0.6933 -3.96,1.36 -0.613,0.6667 -0.92,1.5867 -0.92,2.76 0,0.2133 0.013,0.4533 0.04,0.72 0.24,2.8267 1.427,4.24 3.56,4.24 z m 21.361,-18.12 v -0.84 c -1.2,0.48 -2.294,1.4533 -3.28,2.92 -0.987,1.44 -1.507,2.8 -1.56,4.08 V 83 h -2.8 V 63 h 2.8 v 6.36 c 0.426,-1.5467 1.24,-3 2.44,-4.36 1.2,-1.3867 2.56,-2.1067 4.08,-2.16 h 0.16 c 0.533,0 0.973,0.1867 1.32,0.56 0.373,0.3467 0.56,0.7867 0.56,1.32 0,0.5333 -0.187,0.9733 -0.56,1.32 -0.347,0.3467 -0.787,0.52 -1.32,0.52 -0.534,0 -0.974,-0.1733 -1.32,-0.52 -0.347,-0.3467 -0.52,-0.7867 -0.52,-1.32 z m 7.935,-9.32 V 55 h 7.12 v 0.4 h -1.96 v 27.2 h 1.96 V 83 h -7.12 v -0.4 h 1.84 V 55.4 Z M 308.657,83 h -0.48 l 11.96,-28 0.44,-0.2 10.08,28.2 h -3.4 l -3.12,-8.8 h -11.68 z m 10.24,-23.68 -6.28,14.48 h 11.4 z"
         id="path14-2" />
    </mask>
  </defs>
  <g
     inkscape:label="Capa 1"
     inkscape:groupmode="layer"
     id="layer1"
     transform="translate(-138.37708,-55.827081)">
    <g
       id="g1">
      <path
         d="m 153.18316,68.834002 c -1.31948,0 -2.29659,-0.373936 -2.93159,-1.121834 -0.22569,-0.268102 -0.40931,-0.624416 -0.55033,-1.068916 -0.14102,-0.4445 -0.21167,-0.98425 -0.21167,-1.61925 0,-0.635 0.1024,-1.202981 0.30692,-1.703917 0.21167,-0.508 0.49742,-0.899583 0.85725,-1.17475 0.6985,-0.515064 1.54173,-0.772583 2.52942,-0.772583 0.28231,0 0.55747,0.02468 0.8255,0.07408 0.26802,0.04233 0.4691,0.08819 0.60325,0.137583 l 0.1905,0.07408 -0.0317,0.105833 c -0.47969,-0.1905 -1.00886,-0.28575 -1.5875,-0.28575 -0.74798,0 -1.3724,0.243417 -1.87325,0.73025 -0.381,0.359833 -0.64903,0.889 -0.80434,1.5875 -0.0918,0.395102 -0.13758,0.878417 -0.13758,1.449917 0,0.5715 0.0812,1.100666 0.24342,1.5875 0.16219,0.479769 0.34581,0.836083 0.55033,1.068916 0.21167,0.232834 0.46567,0.419815 0.762,0.560917 0.29633,0.134064 0.53261,0.211667 0.70908,0.232833 0.17648,0.02117 0.38815,0.03175 0.635,0.03175 0.254,0 0.53975,-0.02468 0.85725,-0.07408 0.3175,-0.0494 0.55748,-0.09525 0.71967,-0.137583 l 0.24342,-0.07408 0.0317,0.105834 c -0.53631,0.1905 -1.1819,0.28575 -1.93675,0.28575 z m 3.47345,-1.259417 c 0,0.557398 0.14816,0.913686 0.4445,1.068917 0.14102,0.07056 0.32094,0.105833 0.53975,0.105833 0.4445,0 0.83952,-0.169333 1.18533,-0.508 0.35269,-0.338667 0.54319,-0.652648 0.5715,-0.941917 v -3.799416 h 0.74083 v 4.54025 c 0,0.204602 0.0386,0.363352 0.11642,0.47625 0.0847,0.105833 0.16933,0.162269 0.254,0.169333 l 0.11642,0.02117 h 0.32808 v 0.08467 h -0.64558 c -0.28946,0 -0.51171,-0.0635 -0.66675,-0.1905 -0.14817,-0.127 -0.22596,-0.254 -0.23284,-0.381 l -0.0106,-0.179916 v -0.455084 c -0.127,0.303398 -0.35295,0.589148 -0.67733,0.85725 -0.32465,0.261065 -0.68104,0.391584 -1.06892,0.391584 -0.381,0 -0.69506,-0.03527 -0.94192,-0.105834 -0.23997,-0.0776 -0.41275,-0.183435 -0.51885,-0.3175 -0.18335,-0.218731 -0.2749,-0.500935 -0.2749,-0.846666 v -4.064 h 0.74084 z m 6.17378,1.217083 c -0.62071,0 -1.01229,-0.162269 -1.17475,-0.486833 -0.0352,-0.07056 -0.0529,-0.134064 -0.0529,-0.1905 v -7.249583 h 0.74083 v 7.1755 c 0,0.204602 0.0389,0.363352 0.11642,0.47625 0.0847,0.105833 0.16933,0.162269 0.254,0.169333 l 0.11641,0.02117 h 0.32809 v 0.08467 z m 1.99893,0 c -0.28919,0 -0.51144,-0.0635 -0.66675,-0.1905 -0.14817,-0.127 -0.22569,-0.254 -0.23283,-0.381 l -0.0106,-0.179916 v -4.54025 h 0.74084 v 4.54025 c 0,0.204602 0.0389,0.363352 0.11641,0.47625 0.0847,0.105833 0.1659,0.162269 0.24342,0.169333 l 0.127,0.02117 h 0.32808 v 0.08467 z m -0.84667,-6.477 c -0.0847,-0.08467 -0.127,-0.1905 -0.127,-0.3175 0,-0.127 0.0423,-0.232833 0.127,-0.3175 0.0847,-0.09173 0.1905,-0.137583 0.3175,-0.137583 0.127,0 0.23284,0.04585 0.3175,0.137583 0.0918,0.08467 0.13759,0.1905 0.13759,0.3175 0,0.127 -0.0458,0.232834 -0.13759,0.3175 -0.0847,0.08467 -0.1905,0.127 -0.3175,0.127 -0.127,0 -0.23283,-0.04233 -0.3175,-0.127 z m 6.52595,6.477 c -0.28919,0 -0.51144,-0.0635 -0.66675,-0.1905 -0.14817,-0.127 -0.22569,-0.254 -0.23283,-0.381 l -0.0106,-0.179916 v -3.323167 c 0,-0.557398 -0.14446,-0.913686 -0.43391,-1.068917 -0.14817,-0.07056 -0.33152,-0.105833 -0.55034,-0.105833 -0.45137,0 -0.85724,0.179917 -1.21708,0.53975 -0.35983,0.352769 -0.53975,0.670269 -0.53975,0.9525 v 3.757083 h -0.74083 v -5.291666 h 0.74083 v 1.2065 c 0.12012,-0.303398 0.34237,-0.585603 0.66675,-0.846667 0.32465,-0.268102 0.68104,-0.402167 1.06892,-0.402167 0.38814,0 0.7022,0.03881 0.94191,0.116417 0.24713,0.07056 0.42704,0.172852 0.53975,0.306917 0.17648,0.218731 0.26459,0.500935 0.26459,0.846666 v 3.312584 c 0,0.204602 0.0389,0.363352 0.11641,0.47625 0.0847,0.105833 0.16934,0.162269 0.254,0.169333 l 0.11642,0.02117 h 0.32808 v 0.08467 z m 5.54964,0 c -0.47969,0 -0.80778,-0.09173 -0.98425,-0.275166 -0.16219,-0.155231 -0.24342,-0.289269 -0.24342,-0.402167 v -0.22225 c -0.34581,0.627936 -0.89958,0.941917 -1.66158,0.941917 -0.889,0 -1.39356,-0.402167 -1.51342,-1.2065 -0.014,-0.08467 -0.0212,-0.169334 -0.0212,-0.254 0,-0.09173 0.014,-0.1905 0.0423,-0.296334 0.0283,-0.105833 0.10927,-0.22225 0.24341,-0.34925 0.26803,-0.254 0.85725,-0.409231 1.76742,-0.465666 0.22569,-0.02117 0.43392,-0.03175 0.62442,-0.03175 0.1905,0 0.36327,0.0071 0.51858,0.02117 v -1.756833 c -0.014,-0.0071 -0.014,-0.03881 0,-0.09525 0.014,-0.0635 0,-0.141102 -0.0423,-0.232833 -0.0352,-0.09877 -0.0847,-0.194019 -0.14817,-0.28575 -0.0635,-0.09173 -0.17648,-0.169334 -0.33867,-0.232834 -0.16219,-0.07056 -0.37385,-0.105833 -0.635,-0.105833 -0.26114,0 -0.56806,0.0494 -0.92075,0.148167 -0.34581,0.09173 -0.59981,0.183435 -0.762,0.275166 l -0.0423,-0.07408 c 0.62786,-0.289269 1.26656,-0.433917 1.91558,-0.433917 0.72681,0 1.2065,0.130519 1.43934,0.391584 0.18335,0.204602 0.27516,0.419814 0.27516,0.645583 v 3.545417 c 0,0.204602 0.0389,0.363352 0.11642,0.47625 0.0847,0.105833 0.16933,0.162269 0.254,0.169333 l 0.11642,0.02117 h 0.32808 v 0.08467 z m -2.71992,-0.04233 c 0.37386,0 0.70908,-0.127 1.00542,-0.381 0.30347,-0.261064 0.46566,-0.511519 0.48683,-0.751417 v -1.280583 c -0.1905,-0.0141 -0.38444,-0.02117 -0.58208,-0.02117 -0.1905,0 -0.381,0.01058 -0.5715,0.03175 -0.53631,0.0635 -0.88556,0.183436 -1.04775,0.359834 -0.16219,0.176397 -0.24342,0.419814 -0.24342,0.73025 0,0.05643 0.003,0.119935 0.0106,0.1905 0.0635,0.747897 0.37756,1.121833 0.94192,1.121833 z m 5.65176,-4.79425 v -0.22225 c -0.3175,0.127 -0.60695,0.384519 -0.86783,0.772583 -0.26114,0.381 -0.39873,0.740834 -0.41275,1.0795 v 3.20675 h -0.74083 v -5.291666 h 0.74083 v 1.68275 c 0.11271,-0.409231 0.32808,-0.79375 0.64558,-1.153584 0.3175,-0.366897 0.67734,-0.557397 1.0795,-0.5715 h 0.0423 c 0.14102,0 0.25744,0.0494 0.34925,0.148167 0.0987,0.09173 0.14816,0.208148 0.14816,0.34925 0,0.141102 -0.0495,0.257519 -0.14816,0.34925 -0.0918,0.09173 -0.20823,0.137583 -0.34925,0.137583 -0.14129,0 -0.25771,-0.04585 -0.34925,-0.137583 -0.0918,-0.09173 -0.13759,-0.208148 -0.13759,-0.34925 z m 2.09947,-2.465917 v -0.105833 h 1.88384 v 0.105833 h -0.51859 v 7.196667 h 0.51859 v 0.105833 h -1.88384 v -0.105833 h 0.48684 v -7.196667 z m 2.96969,7.3025 h -0.127 l 3.16441,-7.408333 0.11642,-0.05292 2.667,7.46125 h -0.89958 l -0.8255,-2.328333 h -3.09034 z m 2.70933,-6.265333 -1.66158,3.831167 h 3.01625 z"
         fill="#000000"
         id="path15"
         style="stroke-width:0.264583" />
      <path
         d="m 180.88,78.92 -0.765,0.6441 0.003,0.0031 z m -2.08,-4.04 0.953,-0.3026 v 0 z m 0.36,-12.56 -0.923,-0.3846 -0.003,0.0065 z m 3.24,-4.44 -0.593,-0.8049 -0.008,0.0052 -0.006,0.0053 z m 12.68,-2.64 -0.181,0.9835 0.012,0.0023 0.013,0.002 z m 2.28,0.52 0.362,-0.932 -0.008,-0.0033 -0.008,-0.003 z m 0.72,0.28 0.958,0.2873 0.265,-0.8846 -0.861,-0.3347 z m -0.12,0.4 -0.369,0.9294 1.013,0.4024 0.314,-1.0445 z m -13.08,1.68 0.687,0.727 0.005,-0.0049 0.005,-0.005 z m -3.04,6 0.974,0.2261 0.002,-0.0092 z m 0.4,11.48 -0.949,0.3162 0.002,0.0042 z m 2.08,4.04 -0.751,0.6601 0.005,0.0063 0.006,0.0063 z m 2.88,2.12 -0.43,0.9029 0.009,0.0042 0.009,0.004 z m 2.68,0.88 -0.119,0.9929 v 0 z m 5.64,-0.16 0.154,0.9881 z m 2.72,-0.52 0.252,0.9676 0.02,-0.0051 0.019,-0.0058 z m 0.92,-0.28 0.958,-0.2873 -0.289,-0.9617 -0.96,0.2923 z m 0.12,0.4 0.335,0.9423 0.896,-0.3185 -0.273,-0.9111 z m -7.32,0.08 c -4.8,0 -8.168,-1.3548 -10.318,-3.8872 l -1.524,1.2944 c 2.65,3.1209 6.669,4.5928 11.842,4.5928 z m -10.315,-3.8841 c -0.746,-0.8857 -1.386,-2.1045 -1.892,-3.6985 l -1.906,0.6052 c 0.561,1.766 1.307,3.2406 2.268,4.3815 z m -1.892,-3.6985 C 179.26,73.0234 179,71.0918 179,68.76 h -2 c 0,2.4682 0.274,4.6166 0.847,6.4226 z M 179,68.76 c 0,-2.2925 0.369,-4.3075 1.086,-6.0619 l -1.852,-0.7562 C 177.404,63.9742 177,66.2525 177,68.76 Z m 1.083,-6.0554 c 0.747,-1.7928 1.731,-3.1175 2.924,-4.0302 l -1.214,-1.5888 c -1.527,1.1673 -2.703,2.8026 -3.556,4.8498 z m 2.91,-4.0197 c 2.445,-1.8028 5.416,-2.7249 8.967,-2.7249 v -2 c -3.916,0 -7.318,1.0246 -10.153,3.1151 z M 191.96,55.96 c 1.008,0 1.987,0.0882 2.939,0.2635 l 0.362,-1.967 C 194.186,54.0585 193.085,53.96 191.96,53.96 Z m 2.964,0.2678 c 0.995,0.1571 1.678,0.3185 2.09,0.4705 l 0.692,-1.8766 c -0.601,-0.2213 -1.439,-0.4066 -2.47,-0.5695 z m 2.074,0.4642 0.72,0.28 0.724,-1.864 -0.72,-0.28 z m 0.124,-0.9394 -0.12,0.4 1.916,0.5747 0.12,-0.4 z m 1.207,-0.242 C 196.385,54.7386 194.258,54.36 191.96,54.36 v 2 c 2.076,0 3.948,0.3413 5.631,1.0094 z M 191.96,54.36 c -3.067,0 -5.683,1.0078 -7.777,3.0429 l 1.394,1.4342 c 1.693,-1.6449 3.796,-2.4771 6.383,-2.4771 z m -7.767,3.033 c -1.629,1.5391 -2.715,3.7443 -3.329,6.5101 l 1.952,0.4338 c 0.559,-2.5142 1.5,-4.309 2.751,-5.4899 z m -3.327,6.5009 c -0.369,1.5907 -0.546,3.4983 -0.546,5.7061 h 2 c 0,-2.1122 0.17,-3.8579 0.494,-5.2539 z M 180.32,69.6 c 0,2.2554 0.32,4.3634 0.971,6.3162 l 1.898,-0.6324 C 182.613,73.5566 182.32,71.6646 182.32,69.6 Z m 0.973,6.3204 c 0.632,1.869 1.377,3.3573 2.276,4.3797 l 1.502,-1.3202 c -0.648,-0.7376 -1.289,-1.9427 -1.884,-3.7003 z m 2.287,4.3923 c 0.891,0.9802 1.958,1.7634 3.19,2.3502 l 0.86,-1.8058 c -1.008,-0.4799 -1.861,-1.11 -2.57,-1.8898 z m 3.208,2.3584 c 1.149,0.5199 2.153,0.8634 2.973,0.9618 l 0.238,-1.9858 c -0.514,-0.0616 -1.296,-0.3048 -2.387,-0.7982 z m 2.973,0.9618 c 0.718,0.0861 1.56,0.1271 2.519,0.1271 v -2 c -0.908,0 -1.666,-0.039 -2.281,-0.1129 z m 2.519,0.1271 c 1.023,0 2.156,-0.0993 3.394,-0.2919 l -0.308,-1.9762 c -1.162,0.1807 -2.189,0.2681 -3.086,0.2681 z m 3.394,-0.2919 c 1.209,-0.1881 2.155,-0.3675 2.818,-0.5405 l -0.504,-1.9352 c -0.564,0.147 -1.431,0.3142 -2.622,0.4995 z m 2.857,-0.5514 0.92,-0.28 -0.582,-1.9134 -0.92,0.28 z m -0.329,-0.9494 0.12,0.4 1.916,-0.5746 -0.12,-0.4 z m 0.743,-0.8296 c -1.89,0.6716 -4.211,1.0223 -6.985,1.0223 v 2 c 2.932,0 5.492,-0.3693 7.655,-1.1377 z m 7.823,1.3023 -0.465,0.8858 0.009,0.0044 0.008,0.0042 z m 6.52,-1.52 -0.693,-0.7214 -0.007,0.007 z m 2.16,-3.56 0.995,0.0971 0.005,-0.0484 V 77.36 Z m 0,-14.36 v -1 h -1 v 1 z m 2.8,0 h 1 v -1 h -1 z m 0.44,18.96 -0.825,0.5665 0.021,0.0299 0.023,0.0283 z m 0.96,0.64 0.178,-0.9839 -0.047,-0.0086 -0.048,-0.004 z m 0.44,0.08 -0.179,0.9839 0.088,0.0161 h 0.091 z m 1.24,0 h 1 v -1 h -1 z m 0,0.32 v 1 h 1 v -1 z m -4.96,-0.72 -0.651,0.7593 0.008,0.0074 0.009,0.0073 z m -0.88,-1.44 0.998,-0.0555 v -0.0032 z m -0.04,-0.68 h -1 v 0.0294 l 0.001,0.0293 z m 0,-1.72 h 1 l -1.923,-0.3861 z m -2.56,3.24 0.626,0.7793 0.01,-0.0083 z m -7.6,1.08 -0.308,0.9514 0.016,0.0054 0.017,0.0047 z m -1.961,-1.2 0.785,-0.6196 -0.009,-0.0117 -0.009,-0.0113 z M 202.288,63 v -1 h -1 v 1 z m 2.8,0 h 1 v -1 h -1 z m -1,15.4 c 0,2.2167 0.585,4.0719 2.215,4.9258 l 0.929,-1.7716 c -0.61,-0.3194 -1.144,-1.1576 -1.144,-3.1542 z m 2.232,4.9344 c 0.715,0.3576 1.562,0.5056 2.488,0.5056 v -2 c -0.728,0 -1.242,-0.1187 -1.593,-0.2944 z m 2.488,0.5056 c 1.966,0 3.704,-0.7604 5.179,-2.2056 l -1.399,-1.4288 c -1.138,1.1148 -2.387,1.6344 -3.78,1.6344 z m 5.172,-2.1986 c 1.397,-1.3414 2.322,-2.7377 2.463,-4.1843 l -1.991,-0.1942 c -0.072,0.74 -0.588,1.7171 -1.857,2.9357 z M 216.448,77.36 V 63 h -2 v 14.36 z m -1,-13.36 h 2.8 v -2 h -2.8 z m 1.8,-1 v 17.16 h 2 V 63 Z m 0,17.16 c 0,0.8815 0.164,1.7095 0.615,2.3665 l 1.649,-1.133 c -0.135,-0.1964 -0.264,-0.5683 -0.264,-1.2335 z m 0.659,2.4247 c 0.392,0.4904 0.938,0.9519 1.657,1.0118 l 0.167,-1.993 c 0.039,0.0032 0.038,0.0158 -0.009,-0.0156 -0.051,-0.0342 -0.138,-0.108 -0.254,-0.2526 z m 1.562,0.9992 0.44,0.08 0.357,-1.9678 -0.44,-0.08 z m 0.619,0.0961 h 1.24 v -2 h -1.24 z m 0.24,-1 V 83 h 2 v -0.32 z m 1,-0.68 h -2.44 v 2 h 2.44 z m -2.44,0 c -0.963,0 -1.544,-0.2127 -1.887,-0.494 l -1.267,1.548 c 0.83,0.6787 1.929,0.946 3.154,0.946 z m -1.87,-0.4793 c -0.462,-0.396 -0.527,-0.6444 -0.532,-0.7362 l -1.997,0.111 c 0.048,0.8682 0.57,1.5798 1.228,2.1438 z m -0.532,-0.7394 -0.04,-0.68 -1.997,0.1174 0.04,0.68 z M 216.448,80.16 v -1.72 h -2 v 1.72 z m -1.923,-2.1061 c -0.402,0.9611 -1.139,1.9169 -2.274,2.8551 l 1.273,1.542 c 1.318,-1.0885 2.288,-2.2927 2.846,-3.6249 z m -2.264,2.8469 c -1.063,0.855 -2.192,1.2592 -3.413,1.2592 v 2 c 1.711,0 3.276,-0.5825 4.666,-1.7008 z m -3.413,1.2592 c -1.388,0 -2.474,-0.1295 -3.286,-0.3615 l -0.549,1.923 c 1.054,0.3013 2.342,0.4385 3.835,0.4385 z m -3.253,-0.3514 c -0.803,-0.2598 -1.251,-0.5746 -1.483,-0.8682 l -1.569,1.2392 c 0.568,0.7197 1.426,1.205 2.437,1.5318 z m -1.501,-0.8912 c -0.512,-0.6107 -0.806,-1.4342 -0.806,-2.5574 h -2 c 0,1.4901 0.399,2.7999 1.273,3.8426 z M 203.288,78.36 V 63 h -2 v 15.36 z m -1,-14.36 h 2.8 v -2 h -2.8 z m 1.8,-1 v 15.4 h 2 V 63 Z m 19.894,18.16 -0.894,0.4472 z m -0.2,-28.12 v -1 h -1 v 1 z m 2.8,0 h 1 v -1 h -1 z m 0.44,28.92 -0.824,0.5665 0.021,0.0299 0.022,0.0283 z m 0.96,0.64 0.179,-0.9839 -0.048,-0.0086 -0.048,-0.004 z m 0.44,0.08 -0.179,0.9839 0.089,0.0161 h 0.09 z m 1.24,0 h 1 v -1 h -1 z m 0,0.32 v 1 h 1 v -1 z m -1.24,-1 c -2.251,0 -3.199,-0.5944 -3.545,-1.2872 l -1.789,0.8944 C 223.968,83.3678 225.98,84 228.422,84 Z m -3.545,-1.2872 c -0.09,-0.1797 -0.095,-0.2639 -0.095,-0.2728 h -2 c 0,0.4177 0.129,0.8136 0.306,1.1672 z M 224.782,80.44 v -27.4 h -2 v 27.4 z m -1,-26.4 h 2.8 v -2 h -2.8 z m 1.8,-1 v 27.12 h 2 V 53.04 Z m 0,27.12 c 0,0.8815 0.164,1.7095 0.616,2.3665 l 1.648,-1.133 c -0.135,-0.1964 -0.264,-0.5683 -0.264,-1.2335 z m 0.659,2.4247 c 0.393,0.4904 0.938,0.9519 1.658,1.0118 l 0.166,-1.993 c 0.039,0.0032 0.039,0.0158 -0.008,-0.0156 -0.051,-0.0342 -0.138,-0.108 -0.254,-0.2526 z m 1.562,0.9992 0.44,0.08 0.358,-1.9678 -0.44,-0.08 z m 0.619,0.0961 h 1.24 v -2 h -1.24 z m 0.24,-1 V 83 h 2 v -0.32 z m 1,-0.68 h -1.24 v 2 h 1.24 z m 3.795,0.28 -0.651,0.7593 0.009,0.0074 0.009,0.0073 z m -0.88,-1.44 0.998,-0.0555 v -0.0032 z m -0.04,-0.68 h -1 v 0.0294 l 0.002,0.0293 z m 0,-17.16 v -1 h -1 v 1 z m 2.8,0 h 1 v -1 h -1 z m 0.44,18.96 -0.824,0.5665 0.02,0.0299 0.023,0.0283 z m 0.92,0.64 0.164,-0.9864 -0.036,-0.0061 -0.038,-0.0034 z m 0.48,0.08 -0.165,0.9864 0.082,0.0136 h 0.083 z m 1.24,0 h 1 v -1 h -1 z m 0,0.32 v 1 h 1 v -1 z m -5.64,-24.48 0.707,-0.7071 v 0 z m 0,-2.4 0.707,0.7071 0.014,-0.0141 0.014,-0.0147 z m 2.4,0 -0.735,0.6783 0.027,0.0294 0.03,0.0271 z m 0,2.4 -0.678,-0.7348 -0.015,0.0136 -0.014,0.0141 z m 0.8,23.48 c -0.962,0 -1.543,-0.2127 -1.887,-0.494 l -1.266,1.548 c 0.829,0.6787 1.928,0.946 3.153,0.946 z m -1.869,-0.4793 c -0.462,-0.396 -0.528,-0.6444 -0.533,-0.7362 l -1.997,0.111 c 0.049,0.8682 0.57,1.5798 1.228,2.1438 z m -0.533,-0.7394 -0.04,-0.68 -1.996,0.1174 0.04,0.68 z M 233.537,80.16 V 63 h -2 v 17.16 z m -1,-16.16 h 2.8 v -2 h -2.8 z m 1.8,-1 v 17.16 h 2 V 63 Z m 0,17.16 c 0,0.8815 0.164,1.7095 0.616,2.3665 l 1.648,-1.133 c -0.135,-0.1964 -0.264,-0.5683 -0.264,-1.2335 z m 0.659,2.4247 c 0.373,0.4659 0.903,0.9469 1.61,1.0112 l 0.181,-1.9918 c 0.067,0.006 0.079,0.0288 0.031,-0.005 -0.051,-0.0356 -0.14,-0.1132 -0.26,-0.2638 z m 1.536,1.0017 0.48,0.08 0.329,-1.9728 -0.48,-0.08 z m 0.645,0.0936 h 1.24 v -2 h -1.24 z m 0.24,-1 V 83 h 2 v -0.32 z m 1,-0.68 h -2.44 v 2 h 2.44 z m -4.933,-24.1871 c -0.12,-0.1202 -0.187,-0.2603 -0.187,-0.4929 h -2 c 0,0.7274 0.253,1.3873 0.773,1.9071 z M 233.297,57.32 c 0,-0.2326 0.067,-0.3727 0.187,-0.4929 l -1.414,-1.4142 c -0.52,0.5198 -0.773,1.1797 -0.773,1.9071 z m 0.215,-0.5217 C 233.639,56.6607 233.77,56.6 233.977,56.6 v -2 c -0.754,0 -1.422,0.2859 -1.935,0.8417 z M 233.977,56.6 c 0.206,0 0.338,0.0607 0.465,0.1983 l 1.47,-1.3566 C 235.399,54.8859 234.73,54.6 233.977,54.6 Z m 0.522,0.2548 c 0.137,0.127 0.198,0.2588 0.198,0.4652 h 2 c 0,-0.7536 -0.286,-1.4218 -0.842,-1.9348 z m 0.198,0.4652 c 0,0.2064 -0.061,0.3382 -0.198,0.4652 l 1.356,1.4696 c 0.556,-0.513 0.842,-1.1812 0.842,-1.9348 z m -0.227,0.4929 C 234.35,57.9331 234.21,58 233.977,58 v 2 c 0.727,0 1.387,-0.2531 1.907,-0.7729 z M 233.977,58 c -0.233,0 -0.373,-0.0669 -0.493,-0.1871 l -1.414,1.4142 C 232.59,59.7469 233.25,60 233.977,60 Z m 20.945,24.28 -0.651,0.7593 0.009,0.0074 0.009,0.0073 z m -0.88,-1.44 0.999,-0.0555 -0.001,-0.0032 z m -0.04,-0.68 h -1 v 0.0294 l 0.002,0.0293 z m -1.64,-16.6 0.473,-0.8812 -0.021,-0.0113 -0.022,-0.0104 z m -6.68,1.64 0.7,0.7141 0.007,-0.007 z m -2.04,17.8 v 1 h 1 v -1 z m -2.8,0 h -1 v 1 h 1 z m 0,-20 v -1 h -1 v 1 z m 2.8,0 h 1 v -1 h -1 z m 0,4.56 h -1 l 1.93,0.3677 z m 2.52,-3.2 0.627,0.7793 0.01,-0.0083 z m 7.6,-1.08 -0.308,0.9514 0.017,0.0054 0.016,0.0047 z m 2.04,1.16 0.779,-0.6278 -0.007,-0.0082 -0.007,-0.0081 z m 1.44,17.52 -0.824,0.5665 0.021,0.0299 0.022,0.0283 z m 0.96,0.64 0.179,-0.9839 -0.048,-0.0086 -0.048,-0.004 z m 0.44,0.08 -0.179,0.9839 0.089,0.0161 h 0.09 z m 1.24,0 h 1 v -1 h -1 z m 0,0.32 v 1 h 1 v -1 z m -2.44,-1 c -0.962,0 -1.543,-0.2127 -1.887,-0.494 l -1.266,1.548 c 0.83,0.6787 1.929,0.946 3.153,0.946 z m -1.869,-0.4793 c -0.462,-0.396 -0.527,-0.6444 -0.532,-0.7362 l -1.997,0.111 c 0.048,0.8682 0.569,1.5798 1.227,2.1438 z m -0.533,-0.7394 -0.04,-0.68 -1.996,0.1174 0.04,0.68 z M 255.002,80.16 V 67.6 h -2 v 12.56 z m 0,-12.56 c 0,-2.2069 -0.567,-4.0624 -2.167,-4.9212 l -0.946,1.7624 c 0.587,0.3145 1.113,1.1524 1.113,3.1588 z m -2.21,-4.9429 C 252.061,62.3089 251.21,62.16 250.282,62.16 v 2 c 0.725,0 1.261,0.1177 1.65,0.3029 z m -2.51,-0.4971 c -2.006,0 -3.785,0.8113 -5.307,2.3329 l 1.414,1.4142 c 1.199,-1.1984 2.486,-1.7471 3.893,-1.7471 z m -5.3,2.3259 c -1.413,1.3856 -2.34,2.8326 -2.34,4.3141 h 2 c 0,-0.6518 0.434,-1.6048 1.74,-2.8859 z M 242.642,68.8 V 83 h 2 V 68.8 Z m 1,13.2 h -2.8 v 2 h 2.8 z m -1.8,1 V 63 h -2 v 20 z m -1,-19 h 2.8 v -2 h -2.8 z m 1.8,-1 v 4.56 h 2 V 63 Z m 1.93,4.9277 c 0.374,-0.9469 1.089,-1.881 2.217,-2.7885 l -1.254,-1.5584 c -1.325,1.0658 -2.29,2.265 -2.823,3.6115 z m 2.227,-2.7967 c 1.064,-0.8788 2.189,-1.291 3.403,-1.291 v -2 c -1.719,0 -3.287,0.6011 -4.677,1.749 z m 3.403,-1.291 c 1.412,0 2.484,0.1427 3.252,0.3914 l 0.616,-1.9028 c -1.045,-0.338 -2.347,-0.4886 -3.868,-0.4886 z m 3.285,0.4015 c 0.827,0.2361 1.299,0.5437 1.55,0.8426 l 1.53,-1.2882 c -0.602,-0.7145 -1.49,-1.1802 -2.53,-1.4774 z m 1.537,0.8263 c 0.492,0.6108 0.778,1.4398 0.778,2.5722 h 2 c 0,-1.4809 -0.381,-2.7852 -1.221,-3.8278 z m 0.778,2.5722 v 12.52 h 2 V 67.64 Z m 0,12.52 c 0,0.8815 0.164,1.7095 0.616,2.3665 l 1.648,-1.133 c -0.135,-0.1964 -0.264,-0.5683 -0.264,-1.2335 z m 0.659,2.4247 c 0.393,0.4904 0.938,0.9519 1.658,1.0118 l 0.166,-1.993 c 0.039,0.0032 0.039,0.0158 -0.008,-0.0156 -0.051,-0.0342 -0.138,-0.108 -0.254,-0.2526 z m 1.562,0.9992 0.44,0.08 0.358,-1.9678 -0.44,-0.08 z m 0.619,0.0961 h 1.24 v -2 h -1.24 z m 0.24,-1 V 83 h 2 v -0.32 z m 1,-0.68 h -2.44 v 2 h 2.44 z m 14.815,-0.04 0.721,-0.6931 -0.015,-0.0151 -0.015,-0.0144 z m -0.92,-2.36 h 1 l -1.876,-0.4823 z m -12,-1 0.989,-0.1475 -0.001,-0.0085 -0.002,-0.0084 z m 1,-3.4 -0.688,-0.726 v 0 z m 6.68,-1.76 0.062,0.9981 0.016,-0.001 0.015,-0.0015 z m 4.32,-0.04 -0.091,0.9959 1.091,0.0991 V 73.4 Z m 0,-6.64 h 1 v -0.618 l -0.553,-0.2764 z m 0,-0.36 0.97,0.2425 0.003,-0.0127 0.003,-0.0129 z m -0.16,-0.88 -0.942,0.3363 0.015,0.0422 0.019,0.0406 z m -0.56,-1.08 -0.822,0.5692 v 0 z m -1.28,-0.88 -0.399,0.9171 0.017,0.0074 0.017,0.0067 z m -5.88,0.16 0.256,0.9667 0.014,-0.0037 z m -2.88,1.04 -0.868,0.4961 0.493,0.8642 0.867,-0.4897 z m -0.16,-0.28 -0.419,-0.9083 -0.991,0.4567 0.542,0.9477 z m 12.68,-0.16 -0.746,0.6656 10e-4,0.0019 z m 1.48,17.64 -0.824,0.5665 0.02,0.0299 0.023,0.0283 z m 0.96,0.64 0.179,-0.9839 -0.048,-0.0086 -0.048,-0.004 z m 0.44,0.08 -0.179,0.9839 0.089,0.0161 h 0.09 z m 1.24,0 h 1 v -1 h -1 z m 0,0.32 v 1 h 1 v -1 z m -7.72,-1.6 0.651,0.7593 10e-4,-0.0013 z m 1.84,-2.84 0.996,0.0879 0.004,-0.0439 V 78.56 Z m 0,-4.84 h 1 v -0.9287 l -0.926,-0.0686 z m -4.36,0.04 -0.111,-0.9939 -0.007,8e-4 z m -4.84,4.84 0.996,-0.0846 v -0.0075 l -10e-4,-0.0074 z m 13.84,3.4 c -1.758,0 -2.631,-0.3505 -2.999,-0.7331 l -1.442,1.3862 C 274.941,83.6572 276.548,84 278.417,84 Z m -3.029,-0.7626 c -0.268,-0.2565 -0.433,-0.4618 -0.526,-0.6152 -0.094,-0.1552 -0.085,-0.209 -0.085,-0.1822 h -2 c 0,0.8692 0.589,1.6308 1.229,2.2426 z M 274.777,80.44 V 79.6 h -2 v 0.84 z m -1.876,-1.3223 c -0.576,1.0455 -1.301,1.7914 -2.167,2.2824 -0.869,0.4927 -1.936,0.7599 -3.237,0.7599 v 2 c 1.579,0 2.999,-0.3261 4.223,-1.0201 1.227,-0.6957 2.202,-1.7297 2.933,-3.0576 z m -5.404,3.0423 c -1.538,0 -2.607,-0.3481 -3.327,-0.9219 -0.708,-0.5643 -1.205,-1.4478 -1.404,-2.7856 l -1.978,0.295 c 0.254,1.7022 0.937,3.0987 2.136,4.0544 1.186,0.9462 2.751,1.3581 4.573,1.3581 z m -4.734,-3.7244 c -0.044,-0.2664 -0.066,-0.5314 -0.066,-0.7956 h -2 c 0,0.3758 0.031,0.7508 0.093,1.1244 z M 262.697,77.64 c 0,-0.2448 0.038,-0.5307 0.126,-0.8623 l -1.932,-0.5154 c -0.125,0.4684 -0.194,0.9291 -0.194,1.3777 z m 0.126,-0.8623 c 0.037,-0.1369 0.188,-0.4216 0.642,-0.8517 l -1.376,-1.452 c -0.559,0.5299 -1.022,1.1252 -1.198,1.7883 z m 0.642,-0.8517 c 0.33,-0.3127 0.952,-0.6438 1.997,-0.919 1.027,-0.2707 2.373,-0.4645 4.057,-0.5689 l -0.124,-1.9962 c -1.756,0.1089 -3.244,0.3151 -4.443,0.6311 -1.182,0.3115 -2.18,0.7537 -2.863,1.401 z m 6.085,-1.4904 c 0.828,-0.0776 1.583,-0.1156 2.267,-0.1156 v -2 c -0.756,0 -1.575,0.042 -2.453,0.1244 z m 2.267,-0.1156 c 0.696,0 1.319,0.0258 1.869,0.0759 l 0.181,-1.9918 c -0.622,-0.0566 -1.306,-0.0841 -2.05,-0.0841 z m 2.96,-0.92 v -6.64 h -2 v 6.64 z m -0.553,-7.5344 c 0.279,0.1396 0.41,0.3696 0.463,0.5152 0.048,0.1336 0.05,0.2385 0.05,0.2692 0,0.0632 -0.01,0.0739 0.01,-0.0075 l -1.94,-0.485 c -0.033,0.1319 -0.07,0.3093 -0.07,0.4925 0,0.0907 0.008,0.2439 0.07,0.4142 0.066,0.1823 0.217,0.4373 0.523,0.5902 z m 0.529,0.7513 c 0.121,-0.5431 -0.024,-1.0737 -0.228,-1.516 l -1.816,0.8382 c 0.054,0.117 0.076,0.1954 0.084,0.2398 0.008,0.0427 0,0.0388 0.008,0.0042 z m -0.194,-1.4332 c -0.165,-0.461 -0.393,-0.8988 -0.68,-1.3129 l -1.644,1.1384 c 0.193,0.2792 0.338,0.5614 0.44,0.8471 z m -0.68,-1.3129 c -0.4,-0.5783 -1.035,-0.9672 -1.738,-1.242 l -0.729,1.8624 c 0.525,0.2052 0.743,0.403 0.823,0.518 z m -1.703,-1.2279 C 271.391,62.302 270.441,62.16 269.377,62.16 v 2 c 0.909,0 1.559,0.1247 2.001,0.3171 z M 269.377,62.16 c -1.106,0 -2.361,0.2082 -3.75,0.597 l 0.54,1.926 c 1.277,-0.3579 2.343,-0.523 3.21,-0.523 z m -3.737,0.5934 c -1.328,0.3524 -2.388,0.725 -3.115,1.136 l 0.984,1.7412 c 0.499,-0.2823 1.359,-0.6031 2.644,-0.944 z m -1.755,1.5105 -0.16,-0.28 -1.736,0.9922 0.16,0.28 z m -0.61,1.1244 c 2.251,-1.0369 4.522,-1.5483 6.822,-1.5483 v -2 c -2.607,0 -5.163,0.582 -7.659,1.7317 z m 6.822,-1.5483 c 1.321,0 2.366,0.1196 3.157,0.3349 0.795,0.2163 1.269,0.5108 1.537,0.8107 l 1.492,-1.3312 c -0.612,-0.6867 -1.485,-1.1323 -2.504,-1.4093 -1.021,-0.278 -2.257,-0.4051 -3.682,-0.4051 z m 4.695,1.1475 c 0.567,0.6317 0.785,1.2164 0.785,1.7725 h 2 c 0,-1.1506 -0.475,-2.1925 -1.296,-3.1075 z m 0.785,1.7725 v 13.4 h 2 v -13.4 z m 0,13.4 c 0,0.8815 0.164,1.7095 0.616,2.3665 l 1.648,-1.133 c -0.135,-0.1964 -0.264,-0.5683 -0.264,-1.2335 z m 0.659,2.4247 c 0.392,0.4904 0.938,0.9519 1.658,1.0118 l 0.166,-1.993 c 0.039,0.0032 0.039,0.0158 -0.008,-0.0156 -0.052,-0.0342 -0.139,-0.108 -0.254,-0.2526 z m 1.562,0.9992 0.44,0.08 0.358,-1.9678 -0.44,-0.08 z m 0.619,0.0961 h 1.24 v -2 h -1.24 z m 0.24,-1 V 83 h 2 v -0.32 z m 1,-0.68 h -1.24 v 2 h 1.24 z m -11.52,1.84 c 1.663,0 3.158,-0.5728 4.451,-1.6807 l -1.302,-1.5186 c -0.947,0.8121 -1.986,1.1993 -3.149,1.1993 z m 4.452,-1.682 c 1.221,-1.0505 2.07,-2.2175 2.184,-3.5101 l -1.992,-0.1758 c -0.046,0.5207 -0.424,1.2471 -1.496,2.1699 z m 2.188,-3.598 v -4.84 h -2 v 4.84 z m -0.926,-5.8373 C 273.105,72.6675 272.347,72.64 271.577,72.64 v 2 c 0.723,0 1.431,0.0258 2.126,0.0773 z M 271.577,72.64 c -0.757,0 -1.514,0.0421 -2.271,0.1261 l 0.221,1.9878 c 0.684,-0.076 1.367,-0.1139 2.05,-0.1139 z m -2.278,0.1269 c -1.054,0.1249 -1.967,0.3097 -2.717,0.5673 -0.74,0.2541 -1.397,0.6044 -1.861,1.1087 l 1.472,1.3542 c 0.149,-0.1623 0.458,-0.3721 1.039,-0.5713 0.569,-0.1957 1.33,-0.3576 2.302,-0.4727 z m -4.578,1.676 c -0.829,0.9007 -1.184,2.0893 -1.184,3.4371 h 2 c 0,-0.9988 0.258,-1.6502 0.656,-2.0829 z m -1.184,3.4371 c 0,0.2537 0.016,0.5277 0.045,0.8195 l 1.99,-0.199 c -0.024,-0.2416 -0.035,-0.4475 -0.035,-0.6205 z m 0.043,0.8046 c 0.129,1.5156 0.521,2.8097 1.301,3.7384 0.814,0.9696 1.945,1.417 3.256,1.417 v -2 c -0.823,0 -1.352,-0.2593 -1.724,-0.703 -0.407,-0.4846 -0.728,-1.3106 -0.84,-2.6216 z M 289.498,63.88 h 1 v -1.477 l -1.372,0.5485 z m -3.28,2.92 0.825,0.5653 0.005,-0.0071 z m -1.56,4.08 -0.999,-0.0416 -10e-4,0.0208 V 70.88 Z m 0,12.12 v 1 h 1 v -1 z m -2.8,0 h -1 v 1 h 1 z m 0,-20 v -1 h -1 v 1 z m 2.8,0 h 1 v -1 h -1 z m 0,6.36 h -1 l 1.964,0.2659 z m 2.44,-4.36 0.75,0.6617 0.006,-0.0073 z m 4.08,-2.16 v -1 h -0.018 l -0.017,6e-4 z m 1.48,0.56 -0.733,0.6805 0.025,0.0271 0.027,0.0252 z m 0,2.64 -0.681,-0.7328 -0.013,0.0126 -0.013,0.0131 z m -2.64,0 0.707,-0.7071 v 0 z m 0.48,-1.32 v -0.84 h -2 v 0.84 z m -1.372,-1.7685 c -1.443,0.5775 -2.679,1.7167 -3.738,3.2903 l 1.66,1.1164 c 0.914,-1.3597 1.865,-2.1672 2.821,-2.5497 z m -3.733,3.2833 c -1.056,1.5405 -1.671,3.0798 -1.734,4.6036 l 1.998,0.0832 c 0.043,-1.0362 0.468,-2.2169 1.386,-3.5564 z M 283.658,70.88 V 83 h 2 V 70.88 Z m 1,11.12 h -2.8 v 2 h 2.8 z m -1.8,1 V 63 h -2 v 20 z m -1,-19 h 2.8 v -2 h -2.8 z m 1.8,-1 v 6.36 h 2 V 63 Z m 1.964,6.6259 c 0.381,-1.3821 1.113,-2.7032 2.226,-3.9643 l -1.5,-1.3232 c -1.287,1.4589 -2.182,3.0445 -2.654,4.7557 z m 2.232,-3.9715 c 1.059,-1.2232 2.173,-1.7734 3.359,-1.815 l -0.07,-1.9988 c -1.854,0.0651 -3.46,0.9549 -4.801,2.505 z m 3.324,-1.8144 h 0.16 v -2 h -0.16 z m 0.16,0 c 0.27,0 0.439,0.0814 0.587,0.2405 l 1.466,-1.361 C 292.845,62.1319 292.135,61.84 291.338,61.84 Z m 0.639,0.2928 c 0.159,0.1477 0.241,0.3173 0.241,0.5872 h 2 c 0,-0.7967 -0.292,-1.5072 -0.88,-2.0528 z m 0.241,0.5872 c 0,0.2699 -0.082,0.4395 -0.241,0.5872 l 1.361,1.4656 c 0.588,-0.5457 0.88,-1.2561 0.88,-2.0528 z m -0.267,0.6129 c -0.142,0.1417 -0.319,0.2271 -0.613,0.2271 v 2 c 0.773,0 1.475,-0.2613 2.027,-0.8129 z m -0.613,0.2271 c -0.294,0 -0.471,-0.0854 -0.613,-0.2271 l -1.414,1.4142 c 0.551,0.5516 1.254,0.8129 2.027,0.8129 z m -0.613,-0.2271 c -0.142,-0.1417 -0.227,-0.3191 -0.227,-0.6129 h -2 c 0,0.7729 0.261,1.4755 0.813,2.0271 z M 297.433,55.4 h -1 v 1 h 1 z m 0,-0.4 v -1 h -1 v 1 z m 7.12,0 h 1 v -1 h -1 z m 0,0.4 v 1 h 1 v -1 z m -1.96,0 v -1 h -1 v 1 z m 0,27.2 h -1 v 1 h 1 z m 1.96,0 h 1 v -1 h -1 z m 0,0.4 v 1 h 1 v -1 z m -7.12,0 h -1 v 1 h 1 z m 0,-0.4 v -1 h -1 v 1 z m 1.84,0 v 1 h 1 v -1 z m 0,-27.2 h 1 v -1 h -1 z m -0.84,0 V 55 h -2 v 0.4 z m -1,0.6 h 7.12 v -2 h -7.12 z m 6.12,-1 v 0.4 h 2 V 55 Z m 1,-0.6 h -1.96 v 2 h 1.96 z m -2.96,1 v 27.2 h 2 V 55.4 Z m 1,28.2 h 1.96 v -2 h -1.96 z m 0.96,-1 V 83 h 2 v -0.4 z m 1,-0.6 h -7.12 v 2 h 7.12 z m -6.12,1 v -0.4 h -2 V 83 Z m -1,0.6 h 1.84 v -2 h -1.84 z m 2.84,-1 V 55.4 h -2 v 27.2 z m -1,-28.2 h -1.84 v 2 h 1.84 z m 9.384,28.6 v 1 h 0.657 l 0.261,-0.6036 z m -0.48,0 -0.92,-0.3928 L 306.662,84 h 1.515 z m 11.96,-28 -0.414,-0.9104 -0.354,0.1606 -0.152,0.357 z m 0.44,-0.2 0.941,-0.3366 -0.366,-1.0236 -0.989,0.4498 z m 10.08,28.2 v 1 h 1.419 l -0.478,-1.3366 z m -3.4,0 -0.943,0.3342 L 326.55,84 h 0.707 z m -3.12,-8.8 0.942,-0.3342 -0.236,-0.6658 h -0.706 z m -11.68,0 v -1 h -0.658 l -0.26,0.6036 z m 6.44,-14.88 0.942,-0.3334 -0.848,-2.3983 -1.012,2.3338 z m -6.28,14.48 -0.918,-0.3979 -0.606,1.3979 h 1.524 z m 11.4,0 v 1 h 1.414 l -0.472,-1.3334 z m -15.36,8.2 h -0.48 v 2 h 0.48 z m 0.439,1.3928 11.96,-28 -1.839,-0.7856 -11.96,28 z m 11.454,-27.4824 0.44,-0.2 -0.827,-1.8208 -0.44,0.2 z m -0.915,-0.7738 10.08,28.2 1.883,-0.6732 -10.08,-28.2 z M 330.657,82 h -3.4 v 2 h 3.4 z m -2.458,0.6658 -3.12,-8.8 -1.885,0.6684 3.12,8.8 z M 324.137,73.2 h -11.68 v 2 h 11.68 z m -12.598,0.6036 -3.8,8.8 1.836,0.7928 3.8,-8.8 z m 6.44,-14.8815 -6.28,14.48 1.835,0.7958 6.28,-14.48 z M 312.617,74.8 h 11.4 v -2 h -11.4 z m 12.342,-1.3334 -5.12,-14.48 -1.885,0.6668 5.12,14.48 z"
         fill="#000000"
         mask="url(#path-14-outside-1_70_2081-8)"
         id="path16-5"
         transform="matrix(0.26458333,0,0,0.26458333,102.39374,46.831252)" />
      <line
         x1="138.37708"
         y1="56.488541"
         x2="201.61249"
         y2="56.488541"
         stroke="#000000"
         stroke-width="1.32292"
         id="line16-5" />
      <line
         x1="138.37708"
         y1="72.363541"
         x2="201.61249"
         y2="72.363541"
         stroke="#000000"
         stroke-width="1.32292"
         id="line17-1" />
    </g>
  </g>
</svg>
