<?xml version="1.0" standalone="no"?>
<!DOCTYPE svg PUBLIC "-//W3C//DTD SVG 20010904//EN"
 "http://www.w3.org/TR/2001/REC-SVG-20010904/DTD/svg10.dtd">
<svg version="1.0" xmlns="http://www.w3.org/2000/svg"
 width="450.000000pt" height="450.000000pt" viewBox="0 0 450.000000 450.000000"
 preserveAspectRatio="xMidYMid meet">

<g transform="translate(0.000000,450.000000) scale(0.100000,-0.100000)"
fill="#000000" stroke="none">
<path d="M2075 3654 c-335 -51 -596 -181 -825 -413 -162 -164 -263 -322 -333
-526 -62 -179 -72 -246 -71 -470 0 -169 3 -214 22 -291 68 -286 185 -498 386
-700 206 -205 438 -331 721 -390 125 -26 423 -27 545 -1 288 61 520 186 726
391 205 206 330 438 391 726 26 122 25 420 -1 545 -59 283 -186 516 -390 721
-159 159 -321 263 -521 334 -163 57 -243 71 -440 75 -99 2 -193 1 -210 -1z
m483 -128 c485 -122 846 -485 969 -973 25 -99 28 -124 28 -303 0 -179 -3 -204
-28 -303 -58 -231 -159 -420 -313 -586 l-56 -61 -51 82 c-101 165 -294 328
-475 401 -132 54 -226 71 -382 71 -156 0 -250 -17 -382 -71 -197 -79 -376
-235 -492 -427 l-34 -56 -62 67 c-137 146 -246 348 -303 563 -29 110 -31 124
-31 315 -1 186 1 208 26 308 107 418 390 750 778 910 182 75 308 97 530 93
147 -3 191 -8 278 -30z"/>
<path d="M2119 2936 c-214 -60 -369 -263 -369 -486 0 -271 229 -500 500 -500
271 0 500 229 500 500 0 225 -157 428 -374 486 -63 17 -195 17 -257 0z"/>
</g>
</svg>
