<?xml version="1.0" encoding="UTF-8" standalone="no"?>
<!-- Created with Inkscape (http://www.inkscape.org/) -->

<svg
   width="12.348103mm"
   height="12.34723mm"
   viewBox="0 0 12.348103 12.34723"
   version="1.1"
   id="svg1"
   inkscape:version="1.4 (86a8ad7, 2024-10-11)"
   sodipodi:docname="micuenta.svg"
   xmlns:inkscape="http://www.inkscape.org/namespaces/inkscape"
   xmlns:sodipodi="http://sodipodi.sourceforge.net/DTD/sodipodi-0.dtd"
   xmlns="http://www.w3.org/2000/svg"
   xmlns:svg="http://www.w3.org/2000/svg">
  <sodipodi:namedview
     id="namedview1"
     pagecolor="#ffffff"
     bordercolor="#666666"
     borderopacity="1.0"
     inkscape:showpageshadow="2"
     inkscape:pageopacity="0.0"
     inkscape:pagecheckerboard="0"
     inkscape:deskcolor="#d1d1d1"
     inkscape:document-units="mm"
     inkscape:zoom="0.70500941"
     inkscape:cx="43.971044"
     inkscape:cy="182.26707"
     inkscape:window-width="1142"
     inkscape:window-height="993"
     inkscape:window-x="100"
     inkscape:window-y="16"
     inkscape:window-maximized="0"
     inkscape:current-layer="layer1" />
  <defs
     id="defs1" />
  <g
     inkscape:label="Capa 1"
     inkscape:groupmode="layer"
     id="layer1"
     transform="translate(-93.397917,-99.21875)">
    <path
       d="m 95.773877,108.5409 c 0.52652,-0.40127 1.11125,-0.71769 1.75948,-0.9492 0.64823,-0.23151 1.3282,-0.34726 2.03729,-0.34726 0.711733,0 1.389063,0.11575 2.037293,0.34726 0.64823,0.23151 1.2356,0.54793 1.75948,0.9492 0.35983,-0.42185 0.64029,-0.9003 0.84137,-1.43537 0.20109,-0.53504 0.30163,-1.10609 0.30163,-1.71317 0,-1.36848 -0.48154,-2.53376 -1.44198,-3.49581 -0.96308,-0.96205 -2.12725,-1.44307 -3.497793,-1.44307 -1.3679,0 -2.53206,0.48102 -3.49515,1.44307 -0.96308,0.96205 -1.44198,2.12733 -1.44198,3.49581 0,0.60708 0.10055,1.17813 0.29898,1.71317 0.20109,0.53507 0.48154,1.01352 0.84138,1.43537 z m 3.79677,-2.53117 c -0.6059,0 -1.11919,-0.20836 -1.53459,-0.62507 -0.41804,-0.41672 -0.62441,-0.92864 -0.62441,-1.5357 0,-0.60706 0.20637,-1.11897 0.62441,-1.53569 0.4154,-0.41672 0.92869,-0.62508 1.53459,-0.62508 0.608543,0 1.119193,0.20836 1.537233,0.62508 0.41539,0.41672 0.62441,0.92863 0.62441,1.53569 0,0.60706 -0.20902,1.11898 -0.62441,1.5357 -0.41804,0.41671 -0.92869,0.62507 -1.537233,0.62507 z m 0,5.55625 c -0.85196,0 -1.65629,-0.16205 -2.40771,-0.48617 -0.75142,-0.32411 -1.40494,-0.76398 -1.96056,-1.31961 -0.55563,-0.55562 -0.99484,-1.20901 -1.31763,-1.96014 -0.32543,-0.75112 -0.48683,-1.55368 -0.48683,-2.4077 0,-0.854 0.1614,-1.65659 0.48683,-2.40771 0.32279,-0.75113 0.762,-1.40449 1.31763,-1.96012 0.55562,-0.55562 1.20914,-0.99549 1.96056,-1.3196 0.75142,-0.32412 1.55575,-0.48618 2.40771,-0.48618 0.854603,0 1.656293,0.16206 2.407713,0.48618 0.75141,0.32411 1.40493,0.76398 1.96056,1.3196 0.55562,0.55563 0.99483,1.20899 1.32027,1.96012 0.32279,0.75112 0.48683,1.55371 0.48683,2.40771 0,0.85402 -0.16404,1.65658 -0.48683,2.4077 -0.32544,0.75113 -0.76465,1.40452 -1.32027,1.96014 -0.55563,0.55563 -1.20915,0.9955 -1.96056,1.31961 -0.75142,0.32412 -1.55311,0.48617 -2.407713,0.48617 z"
       fill="#1d1b20"
       id="path74"
       style="stroke-width:0.264583" />
  </g>
</svg>
